<?xml version="1.0" encoding="UTF-8"?>
<svg width="69mm" height="20mm" version="1.1" viewBox="0 0 69 20" xmlns="http://www.w3.org/2000/svg"><g fill-rule="evenodd"><path d="M9.606.18C7.357 1 5.287 2.179 3.295 3.444c-.709.474-1.53.831-2.133 1.419C.843 5.39.22 5.79.214 6.439c-.019.261.379.556.677.492l4.147.006c-.165.785-.435 1.607-.801 2.3-.297.587-.64 1.22-.839 1.867-.106.768-.224 1.537-.132 2.312.063.838.297 1.668.654 2.434.332.63.769 1.192 1.263 1.718.713.71 1.594 1.28 2.588 1.585.646.242 1.335.295 2.025.288.454.04.901.032 1.323-.15.694-.217 1.38-.473 1.946-.921.588-.426 1.142-.907 1.532-1.508.55-.647.921-1.4 1.174-2.19.293-.843.279-1.754.264-2.633-.117-.976-.36-1.948-.877-2.81-.16-.4-.47-.698-.682-1.03-.125-.359-.772-1.41.01-1.25l4.36.007c.11-.214.266-.417.105-.64-.107-.679-.744-1.133-1.158-1.663-1.502-.95-2.939-1.996-4.541-2.795C12.089 1.207 10.841.698 9.606.18zm9.439 6.372c-.004-.021-.002-.005 0 0zM9.609.536c1.468.578 2.905 1.223 4.273 1.99 1.158.637 2.234 1.398 3.359 2.087.432.535 1 .997 1.398 1.529.149.23.072.624-.284.574-1.43-.02-2.942.002-4.35-.016-.211.044-.403-.024-.626.016-.93 0-1.866-.039-2.789-.012-.623.07-1.245-.031-1.87.026-.718-.004-1.452-.04-2.175-.037-1.052-.016-2.064.005-3.12-.003-.83-.019-1.673.031-2.494-.023-.347-.086-.387-.456-.181-.682.335-.444.763-.825 1.073-1.294 1.486-.946 2.994-1.871 4.55-2.716A25.943 25.943 0 019.609.536zM8.83 2.432a29.97 29.97 0 00-5.883 3.379c-.907.843.48-.285.783-.511 1.577-1.129 3.355-2.039 5.1-2.868zm1.65.194c.213.1 1.509.387 2.075.665 1.138.432 2.234.967 3.397 1.333-.52-.224-.907-.36-.96-.377-1.488-.567-2.926-1.318-4.512-1.62zm-.532.428c-1.54.804-3.009 1.724-4.49 2.619.746-.295 1.424-.889 2.164-1.266.766-.45 1.585-.939 2.326-1.353zm.747.675c.029.174 1.334.566 1.796.902.298.119 1.332.821 1.132.651-.886-.648-1.895-1.148-2.928-1.553zm-.85.842c-.308.144-1.379 1.068-.514.436.031-.108.977-.477.513-.436zm.19.07c-.264.016 1.562.93.519.273-.17-.097-.334-.203-.519-.273zm8.98 1.844c0 .004.007.016 0 0zm-13.523.41c.959.096 1.945.02 2.915.047l5.345.007c.07.461.21.889.43 1.308.498.682-.605.335-1.092.631-1 .142-1.518.65-2.175.187-.837-.083-1.687-.933-2.482-.63-.793.23-1.515 1.45-2.034.764-.39-.333-1.3-.392-1.54-.655.226-.43.282-.905.469-1.345.018-.112-.001-.3.164-.313zm1.732.36c-.58.125-.253.215.022.098.212.132-.063.174.267.157.333-.298.131-.224-.289-.256zm-.043.033c.12 0 .014.001 0 0zm4.792.007c-.518-.169-.318.313.048.228-.187-.212.172-.19.313-.047.442.02-.275-.273-.36-.181zm-6.308.164c0 .002.002 0 0 0zm8.203.043v.003zm-1.833.02c-.014-.002 0 .005 0 0zm1.935.303l.001.003zm-5.213.513c.285.208 1.305.525 1.858.718 1.006.558 2.097-.085 3.12-.264.443-.457 1.028.186.854.39-1.149-.155-.984 1.316-.627 1.933.153.569 1.04 1.206.05 1.387-.453.493-.778 1.234-1.575 1.274.18-.007-.86-.091-.23.265.383.585-1.636.08-.892 1.029.504.963 1.516.163 1.937-.413.272-.432.947-.039 1.5-.539.4 0 1.043-1.114.813-.337-.028.47-.2.932-.397 1.35-.564.18-1.143 1.468-1.185 1.242-.073-.893-1.433-.856-1.447-.134-.438-.42-2.187-.894-2.116.428-.008.859-.798-.38-1.456.43-.412.295-.963-.368-.801-.968-.496-.658-1.004.093-1.238-.37-1.13-.464-.748 1.044-.817 1.111-.686-.377-.843-1.549-1.69-1.783-.458.13-.413-.528-.526-.823.006-.192-.25-.843-.045-.749.675.544 1.568.94 2.47.924-.343-.034-1.362-.287-1.921-.65-.497-.221-.752-.587-.665-1.096a9.57 9.57 0 01.208-1.656c.215-.511.458-1.003.63-1.522.098-.307.206-.346.475-.177.79.642.507 1.714.203 2.515-.934.643.702.987.855 1.729.233.252-.045.09.141.22.123.203.547.051.764.026-.515.257-.178.678.382.65.804-.104.338 1.1-.198.774-.39-.167-1.386-1.315-.683-.357.39.639 1.562.627 1.554-.226-.254-.362-1.06-.09-1.143-.586.73-.311-.167-.33-.464-.291-.211-.626-1.333-1.181-1.279-1.592.567-.727.827-1.83.298-2.65-.195-.453-1.047-.11-.666-.658.101-.62 1.137.3 1.554.389.834.55 1.783-.803 2.395-.942zm-2.508 5.47c-.007-.011-.007-.002 0 0zm-.07-.055c-.057-.034-.003.035 0 0zm8.143-4.55c.344-.117.533.273.667.6.405.767.582 1.63.652 2.478.033.512-.216 1.202-.531 1.464-.56.35-1.243.794-1.584.68-.671-.028-1.095 1.17-1.55 1.062-.71-.173-.796-1.396.266-1.105.799-.199-.796-.834.197-.57.788.043 1.243-.617 1.63-1.153.286-.417 1.05-.278.448-.86-.402-.714-.887-1.619-.445-2.408-.033-.115.549-.2.25-.188zm-8.304 4.45c0 .004.003-.002 0 0zm8.43.496c.044-.014.007.018 0 0zm-10.03.962c.589.226.858 1.48 1.639 1.784.408-.007.082-1.331.577-1.134.608.324 1.453-.228 1.38.89.01 1.06 1.555.175 1.722.213 1.002.77 1.047-1.392 1.566-1.071.722.56 1.67.487 1.92-.107.29.134.693 1.286 1.239.464.183-.442.933-1.238.433-.377-.347.544-.73 1.087-1.17 1.567-.652.602-1.372 1.17-2.255 1.436-.5.185-1.014.366-1.56.28-.699.006-1.402-.04-2.05-.306-1.13-.362-2.09-1.104-2.789-2.004-.383-.472-.718-1.002-.906-1.57.17-.074.105-.06.255-.065z" fill="#fcc801"/><path d="M8.486 9.363c-.445.076-.672.58-1.145.67-.428.082-.363.406-.04.555.258.211.53.417.724.685.312.036-.066-.225-.143-.322-.231-.227-.519-.403-.73-.645.21-.345.791-.352 1.049-.695.109-.142.361-.278.31-.214.337.114.755.26.883.608.087.324-.149.624-.124.95-.006.32-.436.403-.701.483a1.357 1.357 0 01-.287.028c.158.024-.268-.193-.377-.213-.06.21.507.3.731.224.289-.057.623-.15.794-.388-.005-.291.07-.572.144-.853.063-.447-.427-.674-.792-.821a.83.83 0 00-.296-.052zm3.88.58c-.348-.012-.77.004-.949.339-.147.115-.22.543-.03.292.096-.312.37-.62.744-.603.303-.02.48-.017.79.18.26.255.075.63.077.94-.07.128.128.213-.079.181.073-.025-.405-.125-.538-.129-.14-.012-.416.065-.339.064-.08-.002-.195.005-.035-.009-.328-.058-.581-.272-.632-.57-.22.078-.083.442.164.48.206.178.705.141.796.065-.012-.026.414.123.631.126.361.04.132-.455.243-.65.105-.354-.195-.67-.566-.69a1.915 1.915 0 00-.278-.016zm-6.175.736c-.181.318-.216.69-.427.993-.068.338.48.326.669.519.31.091.422.69.79.433.251-.233.434-.539.762-.691.231-.275-.221-.569-.496-.595-.379.002-.482-.347-.676-.563-.152-.106-.637-.076-.548.106.125-.075.3-.139.267-.133.193-.04.298.533.632.576.3.051.763.174.71.534-.223.182-.477.349-.638.597-.112.08-.181.225-.192.212-.055-.182-.46-.548-.794-.654-.323-.05-.494-.321-.224-.563.115-.268.113-.536.266-.72.082-.078-.067-.036-.1-.05zm4.278.408c-.33-.022-.68.225-.624.56-.039.149.094.556.166.274-.061-.266-.077-.632.247-.751.309-.156.586.08.885.194.285.15.685.165.865.449.065.304-.29.508-.56.577-.217.06-.423.08-.489.044-.299-.101-.594.062-.818.081.205 0-.313-.266-.248-.467-.289-.208-.136.309.031.382.187.279.843-.021.729 0 .455.09 1.091.078 1.437-.3.292-.294-.107-.586-.41-.64-.416-.108-.767-.406-1.211-.403zm-1.282.679c-.15.005-.235.023-.012.026-.388.318.214.627.408.87.325.318.689.602.993.94.003.13.288.04.032.064-.46-.025-.915.06-1.362.154-.244-.023-.705-.215-1.032-.293-.246-.112-.962-.068-.66-.484.053-.154.458-.457.094-.291-.274.193-.494.706.039.692.485.093.939.294 1.417.404.456.022.887-.178 1.345-.159.104-.012-.077.013.129.005.45.035-.106-.356-.218-.479-.375-.36-.794-.688-1.12-1.09a.565.565 0 01-.053-.36zm-1.49.944c.172-.093-.168-.01 0 0zm.052-.043c.118.016.604-.232.321-.219-.113.064-.22.138-.321.22zm.181-.032c-.192.142.325-.01.429-.07.315-.087.56-.349.657-.623.067-.412-.215.154-.305.235-.162.263-.493.364-.78.458zm5.366-.482c-.378.207-.786.388-1.232.407-.357-.01-.601.249-.81.486-.163.063-.184.47-.032.187.21-.23.415-.516.735-.614.404-.06.826-.088 1.187-.292.129-.042.22-.22.28-.142-.33.13.04.748-.463.771a8.285 8.285 0 01-.43.115c-.131.022.025-.04-.145.019.326.04.646-.072.94-.188.164-.172.175-.604.067-.738l-.045-.007-.052-.004zm-.733.945c-.398-.126.053.425-.325.301-.298 0-.823-.025-.826.363.113.359-.453.598-.529.545.124.036-.24-.15-.003-.263.222-.14.395-.546.19-.697.005-.031.017-.19-.112-.063.032.273.019.577-.257.749-.278.332.351.362.56.253.5-.107.112-.762.613-.828.192-.11.677.087.704-.124a.425.425 0 01-.015-.236zm-.178-.002c.013-.025-.072.01 0 0zM8.557 14.14c-.357.166-.317.69.018.862.373.29 1.026.236 1.294-.154.13-.317-.316-.487-.558-.588-.17-.021-.636-.167-.625-.082.205-.005-.003.028.225.06.32.05.84.203.816.567-.106.25-.525.364-.577.356-.369-.045-.82-.35-.694-.745-.003-.1.217-.222.028-.209.096-.06.323-.044.073-.067zm.024.076c.288.025.108-.093 0 0zm.054-.038l.002-.001z" fill="#87decd"/></g></svg>
