<?xml version="1.0" encoding="UTF-8" standalone="no"?>
<!-- Created with Inkscape (http://www.inkscape.org/) -->

<svg
   width="152mm"
   height="11mm"
   viewBox="0 0 152 11"
   version="1.1"
   id="svg5"
   inkscape:version="1.2.1 (9c6d41e410, 2022-07-14)"
   sodipodi:docname="web2.0.svg"
   xmlns:inkscape="http://www.inkscape.org/namespaces/inkscape"
   xmlns:sodipodi="http://sodipodi.sourceforge.net/DTD/sodipodi-0.dtd"
   xmlns="http://www.w3.org/2000/svg"
   xmlns:svg="http://www.w3.org/2000/svg">
  <sodipodi:namedview
     id="namedview7"
     pagecolor="#ffffff"
     bordercolor="#000000"
     borderopacity="0.25"
     inkscape:showpageshadow="2"
     inkscape:pageopacity="0.0"
     inkscape:pagecheckerboard="0"
     inkscape:deskcolor="#d1d1d1"
     inkscape:document-units="mm"
     showgrid="false"
     inkscape:zoom="1.7469907"
     inkscape:cx="259.58924"
     inkscape:cy="122.78256"
     inkscape:window-width="1920"
     inkscape:window-height="991"
     inkscape:window-x="-9"
     inkscape:window-y="-9"
     inkscape:window-maximized="1"
     inkscape:current-layer="layer1" />
  <defs
     id="defs2" />
  <g
     inkscape:label="Layer 1"
     inkscape:groupmode="layer"
     id="layer1">
    <g
       aria-label="WEB 2.5 collaboration platform"
       id="text236"
       style="font-weight:bold;font-size:11.2889px;font-family:Candara;-inkscape-font-specification:'Candara Bold';fill:#87decd;fill-opacity:0.950893;fill-rule:evenodd;stroke-width:0.264583"
       transform="translate(-0.52916667)">
      <path
         id="path448"
         d="m 151.25634,8.0722904 c -2.9512,1.197277 -0.1424,-7.0663552 -3.36797,-3.3265875 1.20333,3.8736913 -2.4403,4.5215441 -1.32841,0.3886071 -1.94541,-4.23392275 -1.8594,2.5010053 -2.63896,2.9379804 -1.60785,0.2349071 -1.40383,-7.39973114 0.54436,-4.768017 3.06499,-0.8746435 8.27226,-1.2767819 6.78142,3.9122544 l 0.01,0.8557626 z M 142.37624,2.83574 c -0.34456,2.0804401 -3.50708,1.2102739 -2.19727,4.5806036 -1.97221,3.5224924 -2.25235,-7.37251697 -0.13437,-3.9852905 0.52192,-0.6770578 1.4884,-1.0291101 2.33164,-0.5953131 z m -4.63021,2.4970077 c -0.42582,6.4566543 -9.44679,0.3177865 -3.75102,-2.542483 1.71851,-0.7546346 3.93433,0.5771616 3.75102,2.542483 z m -1.43867,0.1653648 c -3.3504,-7.1859504 -3.26396,6.7602075 0,0 z m -4.50894,-5.24757483 c -1.02814,1.44486973 -2.23747,2.24799223 -0.21172,3.23934713 -2.01717,-0.4815233 -0.91026,7.3573332 -2.66252,3.568169 1.0534,-2.8686994 -2.3371,-3.4419978 0.0756,-4.7784386 -0.014,-1.59019016 1.29558,-2.51609378 2.79861,-2.02907753 z m -4.27744,6.79097913 c -0.67441,3.2430402 -4.33201,-0.9538453 -2.8498,-3.0923209 -2.36316,-0.00771 2.18543,-5.2159957 1.33394,-1.0197492 3.89656,-0.030318 -2.76714,2.3984902 0.86544,4.2057771 l 0.65043,-0.093707 z m -4.32705,1.0252615 c -2.06134,0.330058 -7.17647,-0.4057403 -3.01382,-3.0385776 5.05132,-0.8536567 -5.16595,-1.4308648 0.14742,-2.3581702 3.87488,-0.6811692 2.28964,3.247334 2.8664,5.3967478 z m -1.47174,-1.146529 c 0.37832,-3.9653837 -4.49543,1.6309214 0,0 z m -4.27743,1.1520411 c -3.00904,0.4560681 -1.27722,-6.7305288 -0.9889,-7.78353941 2.42816,-0.31660035 0.061,6.15961871 0.9889,7.78353941 z m -2.64584,-2.8442737 c 0.36535,4.457494 -5.60611,0.9057462 -3.7924,5.3633303 -2.99682,0.433411 -1.11133,-6.6883786 -1.0853,-7.7828042 1.52113,0.558572 4.82069,-1.3505877 4.8777,2.4194739 z m -1.46623,0.1433161 c -2.12736,-5.72570904 -3.75502,5.1749882 -0.0882,0.7152026 z m -7.5241,2.7009576 c -3.21111,1.0994184 0.45841,-6.1663591 -3.57188,-3.8750473 1.36158,3.4211099 -2.20971,5.9136479 -1.35597,1.1630654 -1.319667,-3.6362139 2.87856,-2.7697592 4.79971,-1.7377079 0.24537,1.4645987 0.0319,2.9694301 0.12814,4.4496898 z M 99.83341,5.3327477 c -0.425824,6.4566553 -9.446795,0.3177838 -3.751024,-2.542483 1.718508,-0.7546329 3.934334,0.57716 3.751024,2.542483 z m -1.438674,0.1653648 c -3.350386,-7.1859547 -3.263949,6.7602145 0,0 z m -5.120797,2.5741779 c -2.859336,1.1199107 -1.617238,-7.54969044 -0.03686,-4.7752517 -0.05965,1.5908346 -0.06104,3.1858769 0.03686,4.7752517 z m 0.253559,-6.9012223 c -2.12092,3.5430377 -2.29734,-3.154451 0,0 z M 90.881661,7.0415168 C 90.207241,10.284557 86.549617,6.0876764 88.031877,3.9491959 85.668628,3.941481 90.217261,-1.266799 89.36582,2.9294466 93.262396,2.899133 86.598659,5.3279231 90.231231,7.1352237 l 0.650435,-0.093707 z m -4.32704,1.0252615 C 84.493296,8.396842 79.378217,7.6610166 83.54085,5.0282007 88.592218,4.1745454 78.374932,3.5973374 83.688306,2.6700305 c 3.874971,-0.6811444 2.289519,3.2473056 2.866315,5.3967478 z m -1.471747,-1.146529 c 0.378418,-3.9653883 -4.495426,1.630905 0,0 z M 81.35665,2.83574 C 81.012074,4.916177 77.849593,4.0460182 79.159364,7.4163436 77.18713,10.938832 76.907025,0.04382387 79.02501,3.4310531 79.54692,2.7539785 80.513388,2.4019551 81.35665,2.83574 Z m -4.630212,2.4970077 c -0.425825,6.4566553 -9.446793,0.3177844 -3.751024,-2.542483 1.718508,-0.7546329 3.934335,0.57716 3.751024,2.542483 z m -1.438673,0.1653648 c -3.350388,-7.1859538 -3.26395,6.7602135 0,0 z M 70.42053,5.2280167 c -0.366264,4.5197394 -7.893968,3.8129883 -5.214501,-1.25126 -1.516625,-2.7425368 1.916667,-5.8784324 1.348413,-1.6271202 -0.289644,1.6836294 4.55679,-1.0898143 3.866088,2.8783802 z m -1.466234,0.1433161 c -1.451774,-5.39421128 -4.473002,3.8913911 -0.358292,1.3174059 l 0.268718,-0.6022033 0.08957,-0.7152026 z M 64.092573,8.0667783 C 62.031238,8.3968422 56.916158,7.6610163 61.078794,5.0282007 66.13015,4.174545 55.912866,3.5973375 61.22624,2.6700305 c 3.874989,-0.6811508 2.289494,3.2473342 2.866333,5.3967478 z m -1.471746,-1.146529 c 0.378418,-3.9653884 -4.495425,1.630905 0,0 z M 58.343392,8.0722904 C 55.334351,8.5283573 57.06614,1.3417613 57.354474,0.28875087 c 2.428175,-0.3165882 0.06101,6.15958583 0.988918,7.78353953 z m -2.910419,0 C 52.42393,8.5283582 54.155719,1.3417617 54.444054,0.28875087 56.872229,-0.02783737 54.505059,6.4483385 55.432973,8.0722904 Z M 52.79265,5.3327477 c -0.425824,6.4566553 -9.446795,0.3177838 -3.751024,-2.542483 1.718508,-0.7546329 3.934335,0.57716 3.751024,2.542483 z m -1.438674,0.1653648 c -3.350386,-7.1859546 -3.26395,6.7602145 0,0 z M 46.624545,6.9147372 C 43.710108,12.1901 39.437022,0.69379873 46.41508,2.802667 c -0.175254,1.4677818 -4.956537,1.5384935 -1.751488,4.2030208 0.642436,0.2495597 1.332081,0.093611 1.960953,-0.090951 z m -7.728048,0.1984377 c 0.40811,3.8391521 -7.808995,2.7941421 -2.237936,1.4827706 2.664029,-3.1882339 -4.417255,-1.9238853 -1.806265,-5.7295442 0.614625,-2.00610969 6.732636,0.6357751 1.695333,0.4836919 -3.519441,1.7873722 3.07037,1.1948333 2.348868,3.7630817 z m -5.319233,0 c -2.406993,3.9049761 -2.266699,-3.5056703 0,0 z M 30.65582,6.8926885 c 0.378767,2.0643037 -3.565446,1.136371 -4.279073,0.878728 2.060116,-1.9577582 3.210536,-4.5800518 0.112731,-5.019425 2.848509,-2.67320251 5.63254,3.3207694 1.311044,4.2233791 0.952317,-6.18e-4 1.904286,-0.035156 2.855298,-0.082682 z M 22.922262,5.9115243 c -1.081638,3.6131416 -7.633729,2.9189444 -5.457035,-1.5930137 -3.138735,-5.06937908 7.32491,-4.36505162 4.345301,-0.4981614 -1.840038,0.3992188 2.006278,0.7700348 1.111734,2.0911751 z m -1.488283,0.060634 c -3.594271,-4.6102363 -3.388543,4.5599797 0,0 z M 21.031591,2.8853494 c -1.889496,-4.2527867 -4.325966,4.099074 0,0 z M 16.17538,6.8596156 c 0.441672,2.3414874 -2.90865,0.7505751 -4.279263,1.2126748 -0.253563,-1.7505982 -2.2108292,-8.65317888 2.266921,-7.1768302 3.275219,-0.38433133 1.078873,2.200662 -1.305976,1.1189677 -1.377193,2.4045575 5.266914,1.9022163 1.258149,2.8580535 -3.493031,0.2293371 -0.168462,3.24862 2.060169,1.9871342 z M 10.586052,0.8954602 C 10.062383,3.3391293 7.6747651,12.155832 6.2590074,5.6193799 5.592825,2.4101405 5.2185449,2.4206006 4.6274085,5.6414286 3.4113746,12.669217 -0.05672431,1.9865446 0.96602116,0.8954602 3.8373479,0.43280045 2.693831,10.65404 4.1258016,3.7176853 3.858695,0.0290798 7.4155023,0.00186145 7.0417334,3.7672947 8.115751,10.177161 7.9493552,1.6014333 9.6256219,0.8954602 c 0.3201434,0 0.6402871,0 0.9604301,0 z" />
    </g>
  </g>
</svg>
