<?xml version="1.0" encoding="UTF-8" standalone="no"?>
<!-- Created with Inkscape (http://www.inkscape.org/) -->

<svg
   width="104.82466mm"
   height="114.10718mm"
   viewBox="0 0 104.82466 114.10718"
   version="1.1"
   id="svg5"
   xml:space="preserve"
   inkscape:export-filename="outline_clean.png"
   inkscape:export-xdpi="96"
   inkscape:export-ydpi="96"
   inkscape:version="1.1.2 (0a00cf5339, 2022-02-04)"
   sodipodi:docname="logo.svg"
   xmlns:inkscape="http://www.inkscape.org/namespaces/inkscape"
   xmlns:sodipodi="http://sodipodi.sourceforge.net/DTD/sodipodi-0.dtd"
   xmlns:xlink="http://www.w3.org/1999/xlink"
   xmlns="http://www.w3.org/2000/svg"
   xmlns:svg="http://www.w3.org/2000/svg"><sodipodi:namedview
     id="namedview7"
     pagecolor="#ffffff"
     bordercolor="#000000"
     borderopacity="0.25"
     inkscape:showpageshadow="2"
     inkscape:pageopacity="0.0"
     inkscape:pagecheckerboard="0"
     inkscape:deskcolor="#d1d1d1"
     inkscape:document-units="mm"
     showgrid="false"
     inkscape:zoom="1.5208438"
     inkscape:cx="334.68263"
     inkscape:cy="208.43692"
     inkscape:window-width="1920"
     inkscape:window-height="1012"
     inkscape:window-x="0"
     inkscape:window-y="0"
     inkscape:window-maximized="1"
     inkscape:current-layer="layer2"
     inkscape:pageshadow="2"
     fit-margin-top="0"
     fit-margin-left="0"
     fit-margin-right="0"
     fit-margin-bottom="0" /><defs
     id="defs2" /><g
     inkscape:groupmode="layer"
     id="layer2"
     inkscape:label="Layer 2"
     sodipodi:insensitive="true"
     transform="translate(-50.279102,-75.216597)"
     style="display:inline"><path
       id="path1236"
       style="display:none;fill:#ffd42a;fill-opacity:0.975063;fill-rule:evenodd;stroke-width:0.264583"
       d="m 102.55395,74.847111 -8.00985,3.808036 -17.727083,9.848495 -19.959506,12.868468 -3.939294,4.85862 -2.231905,4.85861 0.393774,2.49494 0.525033,1.57562 H 154.02781 l 1.9699,-2.36368 -0.78806,-1.83813 -2.75746,-4.59611 -3.01997,-3.54552 -13.78779,-9.716716 -8.53539,-5.121135 -17.72709,-9.848494 z m -0.076,2.268595 6.25802,2.936772 16.24759,8.809281 7.82277,4.580599 12.63644,8.691462 2.76831,3.17138 2.52749,4.11086 0.72192,1.64434 -1.80506,2.1146 H 55.782125 l -0.481625,-1.40973 -0.360701,-2.23139 2.04587,-4.34599 3.610632,-4.34598 18.292941,-11.510412 16.247587,-8.809281 z"
       sodipodi:insensitive="true" /><a
       id="a1086"
       xlink:actuate="Body"
       sodipodi:insensitive="true"
       style="display:none"><ellipse
         style="display:none;fill:#ffd42a;fill-opacity:0.975063;fill-rule:evenodd;stroke-width:0.277085"
         id="path355"
         cx="102.52859"
         cy="150.60754"
         rx="36.63158"
         ry="38.323795"
         sodipodi:insensitive="true" /><path
         style="display:none;fill:#ffd42a;fill-opacity:0.975063;fill-rule:evenodd;stroke-width:0.264583"
         d="m 78.39276,114.89726 -2.757533,6.56556 -1.969666,4.20196 -1.707047,4.07064 20.353229,-15.23209 z"
         id="path525"
         sodipodi:insensitive="true" /><path
         style="display:none;fill:#ffd42a;fill-opacity:0.975063;fill-rule:evenodd;stroke-width:0.264583"
         d="m 115.94775,114.37202 11.6867,0.26262 0.26262,3.28278 1.44442,3.41409 1.57573,4.20196 2.10098,3.02015 1.31311,3.80803 z"
         id="path527"
         sodipodi:insensitive="true" /></a></g><g
     inkscape:groupmode="layer"
     id="layer3"
     inkscape:label="Layer 3"
     style="display:inline;fill:#ffcc00"
     transform="matrix(1.0725448,0,0,1.1074198,-57.541539,-91.995422)"><path
       id="path2579"
       style="display:inline;fill:#ffcc00;fill-opacity:0.975063;fill-rule:evenodd;stroke-width:0.264583"
       d="m 77.108459,128.32176 c -0.0015,10e-4 -0.0038,0.003 -0.0053,0.005 l -4.82e-4,4.6e-4 -4.82e-4,4.7e-4 -4.82e-4,4.7e-4 -4.81e-4,4.6e-4 -4.82e-4,4.7e-4 -4.82e-4,4.7e-4 -4.82e-4,4.6e-4 -4.82e-4,4.7e-4 -4.81e-4,4.7e-4 -4.82e-4,4.6e-4 -4.82e-4,4.7e-4 -4.82e-4,4.7e-4 h -4.82e-4 l -4.81e-4,4.6e-4 -4.82e-4,4.7e-4 -4.82e-4,4.7e-4 -4.82e-4,4.6e-4 -4.82e-4,4.7e-4 -4.81e-4,4.7e-4 4.81e-4,4.6e-4 4.82e-4,4.7e-4 4.82e-4,4.7e-4 4.82e-4,4.6e-4 4.82e-4,-4.6e-4 4.81e-4,-4.7e-4 4.82e-4,-4.7e-4 4.82e-4,-4.6e-4 4.82e-4,-4.7e-4 4.82e-4,-4.7e-4 v -4.6e-4 l 4.81e-4,-4.7e-4 4.82e-4,-4.7e-4 4.82e-4,-4.6e-4 4.82e-4,-4.7e-4 4.82e-4,-4.7e-4 4.81e-4,-4.6e-4 4.82e-4,-4.7e-4 c 1.4e-4,-1.7e-4 3.43e-4,-0.001 4.82e-4,-0.001 0.0011,-0.001 0.0027,-0.003 0.0039,-0.004 1.4e-4,-1.7e-4 8.23e-4,-0.001 9.63e-4,-0.001 l 4.82e-4,-4.7e-4 4.82e-4,-4.6e-4 z" /><path
       id="path2575"
       style="display:inline;fill:#ffcc00;fill-opacity:0.975063;fill-rule:evenodd;stroke-width:0.264583"
       d="m 78.712409,122.41692 v 4.7e-4 l 4.82e-4,4.7e-4 c 2.05e-4,1.2e-4 0.0012,3.4e-4 0.0014,4.6e-4 l 4.82e-4,4.7e-4 c 2.04e-4,1.2e-4 0.0012,8.1e-4 0.0014,9.3e-4 h 4.81e-4 l 4.82e-4,4.7e-4 c 2.03e-4,1.2e-4 0.0012,8.1e-4 0.0014,9.3e-4 l 4.81e-4,4.7e-4 4.82e-4,4.6e-4 c 2.04e-4,1.3e-4 0.0012,3.5e-4 0.0014,4.7e-4 l 4.81e-4,4.7e-4 c 2.06e-4,1.2e-4 7.58e-4,3.4e-4 9.64e-4,4.6e-4 l 4.82e-4,-4.6e-4 c -2e-4,-1.3e-4 -0.0013,-8.1e-4 -0.0014,-9.4e-4 l -4.81e-4,-4.6e-4 -4.82e-4,-4.7e-4 h -4.82e-4 l -4.82e-4,-4.7e-4 -4.82e-4,-4.6e-4 -4.81e-4,-4.7e-4 h -4.82e-4 v -4.6e-4 h -4.82e-4 l -4.82e-4,-4.7e-4 -4.82e-4,-4.7e-4 -4.81e-4,-4.6e-4 h -4.82e-4 l -4.82e-4,-4.7e-4 h -4.82e-4 -4.82e-4 c -2.47e-4,-1e-4 -0.0013,-4.2e-4 -0.0014,-4.7e-4 z" /><path
       id="path2573"
       style="display:inline;fill:#ffcc00;fill-opacity:0.975063;fill-rule:evenodd;stroke-width:0.264583"
       d="m 82.034981,121.96755 v 4.7e-4 l -4.82e-4,4.6e-4 h -4.82e-4 -4.82e-4 -4.82e-4 l -4.82e-4,4.7e-4 h -4.81e-4 -4.82e-4 v 4.7e-4 l 4.82e-4,4.6e-4 v 4.7e-4 4.7e-4 l 4.81e-4,4.6e-4 v 4.7e-4 4.7e-4 4.6e-4 h 4.82e-4 l 4.82e-4,-4.6e-4 v -4.7e-4 l 4.82e-4,-4.7e-4 v -4.6e-4 h 4.82e-4 l 4.82e-4,-4.7e-4 v -4.7e-4 l 4.81e-4,-4.6e-4 v -4.7e-4 h 4.82e-4 v -4.7e-4 l 4.82e-4,-4.6e-4 v -4.7e-4 h -4.82e-4 -4.82e-4 z" /><path
       id="path2571"
       style="display:inline;fill:#ffcc00;fill-opacity:0.975063;fill-rule:evenodd;stroke-width:0.264583"
       d="m 78.83768,121.37585 -0.0043,0.0131 4.82e-4,-4.7e-4 4.81e-4,-4.7e-4 v -4.6e-4 l 4.82e-4,-4.7e-4 v -4.7e-4 l 4.82e-4,-4.6e-4 v -4.7e-4 l 4.82e-4,-4.7e-4 4.82e-4,-4.6e-4 v -4.7e-4 l 4.81e-4,-4.6e-4 v -4.7e-4 l 4.82e-4,-4.7e-4 v -4.6e-4 l 4.82e-4,-4.7e-4 4.82e-4,-4.7e-4 v -4.6e-4 l 4.82e-4,-4.7e-4 v -4.7e-4 l 4.81e-4,-4.6e-4 v -4.7e-4 l 4.82e-4,-4.7e-4 4.82e-4,-4.6e-4 v -4.7e-4 l -4.82e-4,-4.7e-4 c -2.17e-4,-1.3e-4 -0.0012,-7.8e-4 -0.0014,-9.3e-4 z" /><path
       id="path2557"
       style="display:inline;fill:#ffcc00;fill-opacity:0.975063;fill-rule:evenodd;stroke-width:0.264583"
       d="m 123.64258,118.37934 c -5e-4,0.005 0.004,0.0213 0.01,0.0248 0.004,0.002 0.007,0.005 0.0109,0.007 -0.005,-0.0113 -0.0108,-0.022 -0.0176,-0.032 -9.2e-4,-0.002 -0.002,-0.002 -0.003,0 z" /><path
       id="path2555"
       style="display:inline;fill:#ffcc00;fill-opacity:0.975063;fill-rule:evenodd;stroke-width:0.264583"
       d="m 123.64258,118.37934 h 5.2e-4 c 10e-4,-0.002 0.002,-0.002 0.003,0 0.007,0.01 0.0126,0.0207 0.0176,0.032 -0.004,-0.002 -0.007,-0.005 -0.0109,-0.007 -0.006,-0.004 -0.0103,-0.0198 -0.01,-0.0248 z" /><path
       id="path2549"
       style="display:inline;fill:#ffcc00;fill-opacity:0.975063;fill-rule:evenodd;stroke-width:0.264583"
       d="m 84.782939,118.09512 c -0.0064,0.006 -0.0136,0.0119 -0.02015,0.0181 -0.0058,0.0124 -0.01193,0.0245 -0.01809,0.0367 0.01276,-0.0182 0.02552,-0.0365 0.03824,-0.0548 z" /><path
       id="path2539"
       style="display:inline;fill:#ffcc00;fill-opacity:0.975063;fill-rule:evenodd;stroke-width:0.264583"
       d="m 108.9268,117.8028 v 4.7e-4 4.7e-4 c -0.0461,0.003 -0.0914,0.008 -0.13683,0.0163 -0.0726,0.006 -0.1461,0.008 -0.21826,0.0177 -0.0942,0.0109 -0.18836,0.019 -0.28283,0.028 -0.0908,0.003 -0.1815,0.0137 -0.27222,0.0182 -0.0716,0.002 -0.14086,0.0142 -0.212,0.0187 -0.0811,0.01 -0.1622,0.0214 -0.24331,0.0313 -0.0791,0.0168 -0.15813,0.0269 -0.2385,0.0359 -0.088,0.0139 -0.17681,0.0218 -0.26548,0.0308 -0.0856,0.005 -0.17051,0.0154 -0.25536,0.0271 -0.10132,0.009 -0.20231,0.0253 -0.30402,0.028 -0.0913,0.007 -0.18259,0.007 -0.27415,0.008 -0.0907,6.4e-4 -0.1815,8e-4 -0.27222,9.4e-4 -0.0842,0.002 -0.16895,6.8e-4 -0.25295,0.007 -0.072,0.002 -0.14338,0.008 -0.21489,0.0163 -0.10048,0.011 -0.20159,0.0202 -0.30258,0.0257 -0.0767,0.001 -0.15309,0.007 -0.22982,0.0103 -0.0793,0.003 -0.15867,0.003 -0.23802,0.004 -0.0842,9.1e-4 -0.16828,-10e-4 -0.25247,-0.003 -0.0971,-0.004 -0.19404,-0.0137 -0.29053,-0.0247 -0.10772,-0.0139 -0.21584,-0.0249 -0.32378,-0.0369 -0.11248,-0.0137 -0.22509,-0.0236 -0.33775,-0.0359 -0.0974,-0.0104 -0.19501,-0.0182 -0.29246,-0.0285 -0.0876,-0.009 -0.17552,-0.0177 -0.26307,-0.0275 -0.0786,-0.009 -0.157,-0.0176 -0.2356,-0.0257 -0.0586,-0.006 -0.11751,-0.008 -0.17634,-0.0107 -0.058,-0.003 -0.11633,-0.002 -0.17442,-4.6e-4 -0.0934,0.008 -0.18683,0.004 -0.28041,0.007 -0.0683,-0.002 -0.13653,0.003 -0.20477,0.003 -0.0508,9e-4 -0.10144,0.003 -0.15226,0.004 -0.0625,10e-4 -0.12543,0.002 -0.1879,0.002 -0.0798,0.002 -0.15933,9.9e-4 -0.23898,4.6e-4 -0.0598,0.0148 -0.11905,0.0283 -0.18068,0.035 -0.0666,0.006 -0.13455,0.0186 -0.2014,0.0168 -0.0644,9e-4 -0.12839,0.009 -0.19272,0.007 -0.071,0.002 -0.14171,0.003 -0.21248,-0.004 -0.0619,0.0103 -0.12893,0.005 -0.19176,-9.3e-4 -0.0417,9.1e-4 -0.0836,-0.003 -0.12527,-0.006 -0.036,0 -0.0719,0.002 -0.10793,0.002 -0.044,9e-4 -0.0879,0.006 -0.132015,0.006 -0.04306,-0.002 -0.08475,0.005 -0.127198,0.0107 -0.05595,0.002 -0.11171,0.0126 -0.167671,0.008 -0.05225,0 -0.104498,-7.8e-4 -0.156588,0.002 -0.05177,0.008 -0.103979,-0.002 -0.156107,0 -0.04548,0.003 -0.09084,-7.2e-4 -0.136353,0.002 -0.06299,0.005 -0.126517,0.008 -0.189834,0.008 -0.08564,0.002 -0.171158,0.001 -0.256805,0.004 -0.08873,0.01 -0.177289,0.0112 -0.266442,0.0112 -0.08774,0 -0.174214,0.0187 -0.261623,0.0196 -0.124774,0.007 -0.249021,0.0227 -0.374368,0.004 -0.07244,-0.0117 -0.14235,-0.0353 -0.213442,-0.0532 -0.05192,-0.0227 -0.09628,-0.0417 -0.139244,-0.0602 -0.148866,0.009 -0.297594,0.0223 -0.446639,0.028 -0.08778,0.004 -0.175343,0.004 -0.263069,0.009 -0.147683,0.008 -0.295333,0.0175 -0.442785,0.0289 -0.119274,0.007 -0.238245,0.0223 -0.357985,0.0187 -0.111968,10e-4 -0.223408,0.0155 -0.335341,0.0182 -0.143259,0.008 -0.286506,0.0162 -0.429294,0.0163 -0.0828,-9e-4 -0.165405,-0.001 -0.248133,-0.004 -0.140942,-0.002 -0.28195,-0.006 -0.422549,-0.0149 -0.07892,-0.004 -0.157617,-0.01 -0.236569,-0.0135 -0.121121,-0.006 -0.242113,-0.0161 -0.363286,-0.0215 -0.113376,-0.009 -0.22666,-0.0202 -0.340159,-0.0247 -0.0836,-0.004 -0.167458,-0.005 -0.251023,-0.0107 -0.09685,-0.007 -0.193663,-0.0124 -0.290533,-0.0196 -0.08142,-0.007 -0.162753,-0.0132 -0.244278,-0.0187 -0.11707,-0.008 -0.233884,-0.0202 -0.351241,-0.0247 -0.111161,-9.1e-4 -0.222172,-0.009 -0.333413,-0.008 -0.09871,-0.007 -0.196433,-0.01 -0.295351,-0.009 -0.107973,-0.004 -0.215852,-5.3e-4 -0.323777,-0.004 -0.12501,-0.002 -0.249859,-0.0131 -0.374849,-0.0103 -0.116218,0.003 -0.232115,-0.005 -0.34835,-0.005 -0.08352,0.003 -0.167095,0.002 -0.250542,0.005 -0.118274,-0.01 -0.237149,-3e-5 -0.355577,-0.002 -0.114962,-0.005 -0.230107,-7.2e-4 -0.344976,-0.004 -0.09832,2e-5 -0.195991,0.002 -0.294387,0 -0.134923,-0.002 -0.269785,-0.004 -0.404722,-0.005 -0.11059,0 -0.221062,9.9e-4 -0.331486,0.007 -0.08024,-0.005 -0.160676,0.002 -0.240906,0.005 -0.09975,0.003 -0.197334,0.0189 -0.296796,0.0261 -0.151113,0.0133 -0.303186,0.0152 -0.454348,0.0261 -0.0857,-4.7e-4 -0.171093,0.003 -0.256805,-9.3e-4 -0.0949,-0.002 -0.189901,-0.006 -0.284751,-0.009 -0.118294,-0.006 -0.236189,-0.0141 -0.354131,-0.0243 -0.118017,-0.0114 -0.236284,-0.0215 -0.353168,-0.0415 -0.107973,-0.0136 -0.21616,-0.0258 -0.324259,-0.0383 -0.113501,-0.007 -0.226798,-0.0192 -0.340641,-0.021 -0.11465,-0.009 -0.229565,-0.008 -0.344495,-0.005 -0.05187,-0.003 -0.103648,-0.003 -0.155625,-0.002 -0.210082,0.30981 -0.418953,0.62095 -0.628764,0.93095 0.03639,-6e-5 0.07295,-0.002 0.109371,-9.4e-4 0.03831,0 0.07581,0.003 0.11419,9.4e-4 h 0.118525 c 0.03811,0 0.07615,9.1e-4 0.11419,0 0.03956,0.002 0.07938,4.7e-4 0.119007,9.3e-4 0.03229,0 0.06453,-0.002 0.09684,-9.3e-4 0.02926,0 0.05804,9.1e-4 0.08721,0 0.03784,0 0.0754,1.2e-4 0.113226,9.3e-4 0.04608,0 0.0922,4e-4 0.138279,4.7e-4 0.04575,0.002 0.09158,-0.001 0.137317,0.004 0.03556,-6e-5 0.07093,9.7e-4 0.10648,9.3e-4 0.04186,-3.2e-4 0.08392,1e-5 0.125753,4.7e-4 0.04054,-0.002 0.08092,-0.003 0.121416,-0.006 0.05229,-0.004 0.104933,-0.004 0.157071,-0.0107 0.05526,-0.004 0.110463,-0.007 0.165743,-0.009 0.05692,-0.004 0.113687,-0.009 0.170561,-0.0131 0.05334,-0.004 0.106705,-0.009 0.159962,-0.0131 0.06895,-0.006 0.138193,-0.01 0.207179,-0.0163 0.05732,0 0.114249,-0.002 0.171524,-0.004 0.0604,-0.002 0.121301,-0.002 0.181643,-0.006 0.07383,0 0.147355,-0.003 0.221152,-0.003 0.05181,0.002 0.103786,-0.003 0.155625,9.4e-4 0.01702,-2e-5 0.03403,4.8e-4 0.05107,4.6e-4 l 0.149361,-0.002 c 0.002,0.002 0.0038,0.004 0.0058,0.007 0.01328,2e-5 0.02649,-8e-5 0.03951,-0.002 0.0041,0.001 0.02265,0.007 0.03903,4.7e-4 0.05669,-0.006 0.113799,-0.005 0.170562,-0.0103 0.08475,-0.003 0.167922,0.005 0.252469,0 0.145561,-0.0115 0.294359,0.007 0.439894,-0.0177 0.159767,-0.004 0.318692,-0.0228 0.478438,-0.0201 l -4.82e-4,0.003 c 0.120312,0.002 0.229953,0.0112 0.329559,0.0257 l 31.885318,-0.30285 c 0.0992,-0.0279 0.19967,-0.0506 0.30354,-0.0663 0.0932,-0.0124 0.18687,-0.0234 0.2809,-0.0261 0.0117,-2.2e-4 0.0235,-3.9e-4 0.0352,-4.7e-4 0.0352,-2.6e-4 0.0704,9.3e-4 0.10552,0.002 0.047,-0.004 0.0952,0.003 0.14213,0.009 0.0716,0.009 0.1401,0.0315 0.21151,0.0406 0.0325,0.004 0.0629,0.0119 0.0944,0.0201 0.0515,0.01 0.10573,0.0219 0.15803,0.0336 0.0551,0.0146 0.10637,0.038 0.16045,0.0555 0.0459,0.023 0.21038,0.079 0.2197,0.13019 0.007,0.0383 -6.1e-4,0.0778 -9.6e-4,0.11666 -6.7e-4,0.004 -7.8e-4,0.005 -9.6e-4,0.008 0.0581,-0.039 0.11392,-0.0584 0.16622,-0.0593 0.19948,-0.003 0.3473,0.2654 0.37389,0.76995 0.007,0.13889 -0.006,0.27504 0.0279,0.41205 0.0125,0.11137 0.0421,0.21875 0.0752,0.32571 0.005,0.0344 0.0376,0.0919 0.0622,0.14932 2.8e-4,4.8e-4 6.8e-4,9.2e-4 9.6e-4,10e-4 0.069,0.11786 0.10475,0.25074 0.12768,0.38545 0.0151,0.0855 0.0199,0.17238 0.0236,0.25898 0.003,0.0476 0.001,0.0953 0.005,0.14279 0.002,0.0379 -5.2e-4,0.0761 0.002,0.11386 9.3e-4,0.003 9.3e-4,0.003 0.003,0.0131 0,0.01 0.003,0.0279 0.006,0.0462 0.009,0.0272 0.0248,0.0781 0.0265,0.0845 -0.0115,-0.0385 0.0406,0.0986 0.0443,0.10826 -0.0223,-0.0652 0.0477,0.11348 0.0487,0.11619 0.0136,0.0416 0.0266,0.0836 0.0409,0.12506 0.0311,0.0839 0.0509,0.17085 0.0636,0.25898 0.008,0.061 0.0112,0.12236 0.013,0.18386 5.9e-4,0.0169 6.8e-4,0.0339 9.7e-4,0.0509 0.004,0.0114 0.009,0.0217 0.0111,0.0266 0.0148,0.0402 0.0331,0.0885 0.0463,0.11619 0.0359,0.0832 0.0266,0.058 0.0588,0.13206 0.001,4.8e-4 0.059,0.1558 0.0453,0.11246 0.0236,0.0738 0.0455,0.14911 0.052,0.22632 -7.2e-4,-0.007 -9.5e-4,-0.0116 -9.6e-4,-0.0135 0.003,0.0134 0.0145,0.0909 0.0144,0.0943 0.003,-0.021 0.007,0.0206 0.009,0.0555 0.005,0.02 0.009,0.0395 0.0125,0.0583 0.0195,0.038 0.0359,0.0775 0.0424,0.0929 -0.0247,-0.0629 0.0426,0.0868 0.0491,0.10079 -0.01,-0.0355 0.0378,0.0703 0.0443,0.0831 0.0128,0.0724 0.0549,0.13502 0.0101,0.0355 0.0376,0.0727 0.0608,0.15062 0.0848,0.22819 0.006,0.034 0.0109,0.0577 0.0222,0.13999 0.002,0.007 0.005,0.0478 0.007,0.0784 v 4.7e-4 c 0.004,0.0171 0.0186,0.1078 0.0193,0.11479 -0.0122,-0.0877 0.0182,0.0986 0.0188,0.10313 6e-5,0.003 3.5e-4,0.005 4.8e-4,0.008 0.0221,0.0228 0.0608,0.048 0.0771,0.07 0.0313,0.0602 0.0659,0.11813 0.10166,0.17592 0.0457,0.0723 0.0832,0.14857 0.11757,0.22632 0.0304,0.0675 0.0504,0.13829 0.0761,0.20719 0.0205,0.0409 0.0379,0.0831 0.0578,0.12459 0.0407,0.0778 0.0654,0.16206 0.0949,0.24405 0.009,0.0349 0.0173,0.051 0.0332,0.0761 0.0757,0.13495 0.15791,0.2665 0.23464,0.40084 0.0523,0.11392 0.1237,0.22427 0.16864,0.34112 0.0179,0.0464 0.0253,0.0958 0.0395,0.14326 0.0988,0.33066 -0.013,-0.0743 0.0795,0.26645 0.0427,0.18725 0.046,0.37875 0.0689,0.56836 0.0137,0.0292 0.0281,0.0579 0.0405,0.0877 0.0256,0.0727 0.0619,0.14087 0.0939,0.21139 0.0293,0.0661 0.0628,0.13073 0.0978,0.19412 0.0268,0.0529 0.0574,0.10397 0.0896,0.15399 0.0206,0.0344 0.0437,0.0664 0.0679,0.0985 0.037,0.0464 0.0739,0.0933 0.10985,0.14046 0.0497,0.0571 0.0961,0.11605 0.14214,0.17592 0.0451,0.0571 0.064,0.0845 0.11226,0.14746 -0.0424,-0.0447 0.0802,0.0925 0.0805,0.0952 0.0799,0.0902 0.15514,0.1865 0.2067,0.29492 0.0425,0.0922 0.0818,0.1891 0.0973,0.28885 0.001,0.0204 0.0135,0.041 0.0101,0.0611 -0.002,0.0107 -0.0136,-0.0206 -0.0246,-0.0224 -0.0108,-0.002 -0.0355,0.0335 0.003,0.0317 0.0374,0.0617 0.0685,0.1275 0.11708,0.18105 0.073,0.0858 0.15863,0.16045 0.23368,0.24452 l -9.6e-4,-4.6e-4 c 0.40637,0.45503 0.52249,0.87728 0.44037,1.16892 l 0.64226,1.01587 2.66923,5.37241 1.54999,5.42094 0.72223,4.91369 -0.0366,5.94497 -0.72127,5.4536 -1.87521,5.25762 -1.55144,3.32433 -2.63213,3.7345 -2.48904,3.40646 -4.14743,3.73451 -4.18357,2.89875 -4.83305,1.94915 -4.07565,1.26086 -8.655738,-0.27812 -4.075161,-1.04854 -4.580581,-1.78535 -4.111779,-2.50585 -3.931099,-3.35746 -4.003371,-4.79844 -2.921222,-5.0285 -1.840038,-5.53526 -0.865334,-4.81524 -0.252469,-5.87964 0.901951,-7.40274 2.33004,-5.57586 c 0.01941,-0.0175 0.03903,-0.0342 0.0583,-0.0518 0.01927,-0.0176 0.03802,-0.037 0.05396,-0.0583 0.0294,-0.0411 0.05752,-0.0827 0.08239,-0.12646 0.02487,-0.0438 0.04641,-0.0896 0.06119,-0.13859 0.02315,-0.0629 0.04009,-0.12766 0.05059,-0.19366 0.01125,-0.0138 0.02259,-0.0274 0.03373,-0.0411 0.0033,-0.004 0.0059,-0.009 0.0092,-0.0135 0.01154,-0.082 0.02539,-0.16326 0.04288,-0.24452 0.03161,-0.15739 0.05904,-0.31555 0.08913,-0.47317 0.02666,-0.12171 0.04909,-0.24463 0.08046,-0.36538 0.02349,-0.0989 0.06761,-0.1924 0.09347,-0.29118 0.03261,-0.0992 0.089,-0.18923 0.128643,-0.28605 0.05717,-0.11167 0.111497,-0.22519 0.159962,-0.34065 0.06909,-0.14963 0.121439,-0.30759 0.208624,-0.44797 0.0227,-0.0397 0.04554,-0.0789 0.06794,-0.11899 0.0148,-0.0369 0.03105,-0.0763 0.02505,-0.0691 0.01399,-0.0379 0.02522,-0.0772 0.0371,-0.1162 0.01608,-0.0482 0.03,-0.0956 0.04722,-0.14325 0.01723,-0.0496 0.03272,-0.11142 0.05493,-0.16379 0.0236,-0.0579 0.04818,-0.11525 0.07179,-0.17313 0.01974,-0.0447 0.03724,-0.0902 0.05685,-0.13486 0.01605,-0.0509 0.03182,-0.10238 0.05011,-0.15259 0.01543,-0.0469 0.03062,-0.0936 0.04433,-0.14092 0.01943,-0.0603 0.04423,-0.11916 0.06312,-0.17966 0.02107,-0.0575 0.04095,-0.11503 0.06312,-0.17219 0.01427,-0.0403 0.03313,-0.0767 0.04481,-0.11806 0.02143,-0.0607 0.04559,-0.1204 0.07372,-0.17825 0.0187,-0.0446 0.03703,-0.089 0.05396,-0.13439 0.03552,-0.0916 0.07432,-0.18276 0.126235,-0.26692 0.04339,-0.0709 0.08858,-0.14071 0.135389,-0.20952 0.05036,-0.0587 0.01018,0.0537 0.0371,-0.0275 0.0096,-0.033 0.01505,-0.0671 0.0212,-0.1008 0.0095,-0.0801 0.02323,-0.15952 0.03999,-0.23845 0.01229,-0.0557 0.02398,-0.11181 0.03854,-0.16706 0.01801,-0.0763 0.03699,-0.15154 0.06119,-0.22631 0.01204,-0.032 0.02415,-0.0644 0.02602,-0.0989 0.0092,-0.074 0.02168,-0.1474 0.03758,-0.22026 0.01368,-0.074 0.02806,-0.14785 0.04722,-0.22071 0.01769,-0.0769 0.0375,-0.15322 0.06408,-0.22772 0.01826,-0.051 0.0435,-0.1187 0.06264,-0.15726 0.01864,-0.05 0.03468,-0.1036 0.05734,-0.15353 0.01152,-0.0258 0.02249,-0.0519 0.03373,-0.0779 -0.04646,-0.065 -0.09052,-0.1315 -0.109853,-0.20952 -0.108792,0.13119 -0.216848,0.26301 -0.325222,0.3943 -0.830537,0.97538 -1.673871,1.94085 -2.458684,2.95382 -0.279364,0.3603 -0.565656,0.71556 -0.857142,1.06627 -0.02255,0.0644 -0.04658,0.12802 -0.08143,0.18666 -0.03093,0.0296 -0.06478,0.11612 -0.102625,0.13719 -0.0036,0.0113 -0.0062,0.0228 -0.01156,0.0336 -0.02288,0.0523 -0.05011,0.10187 -0.08046,0.14932 -0.01476,0.0296 -0.02822,0.0595 -0.04481,0.0882 -0.04551,0.0854 -0.09929,0.16855 -0.159961,0.24405 -0.01595,0.0225 -0.0555,0.0597 -0.09829,0.0971 -0.02303,0.0454 -0.0461,0.0902 -0.06697,0.13672 -0.03532,0.0705 -0.07285,0.13906 -0.116599,0.20486 -0.05294,0.0822 -0.104184,0.16615 -0.163334,0.24405 -0.01198,0.0147 -0.02404,0.0297 -0.03614,0.0443 -0.01129,0.0704 -0.02955,0.13965 -0.05444,0.20672 -0.03179,0.10436 -0.09142,0.19575 -0.154662,0.28325 -0.0343,0.0453 -0.07919,0.0789 -0.120935,0.11619 l -2.505419,5.94217 -0.970368,7.88945 0.271742,6.26695 0.930859,5.13162 1.978318,5.89971 3.141892,5.35887 4.305467,5.11389 4.228377,3.57818 4.422547,2.67104 4.92604,1.90295 4.38352,1.11713 9.30956,0.29632 4.38303,-1.34439 5.19827,-2.07701 4.49915,-3.08914 4.46109,-3.97996 2.67647,-3.63044 2.8316,-3.97996 1.66803,-3.54318 2.01687,-5.60293 0.77619,-5.81291 0.0386,-6.33601 -0.7762,-5.23708 -1.66755,-5.77698 -2.87063,-5.72518 -1.3192,-2.06861 -4.8e-4,-9.3e-4 c -0.0137,-0.009 -0.0273,-0.0185 -0.041,-0.0275 -0.0214,-0.0121 -0.0404,-0.0273 -0.0597,-0.0425 -0.0238,-0.0185 -0.0446,-0.0406 -0.0665,-0.0611 -0.0302,-0.0318 -0.0566,-0.0666 -0.08,-0.10359 -0.0288,-0.0453 -0.0498,-0.0935 -0.0675,-0.14373 -0.0545,-0.0441 -0.10743,-0.0906 -0.15755,-0.13952 -0.0551,-0.0514 -0.1108,-0.10276 -0.1643,-0.15586 -0.0476,-0.0476 -0.0932,-0.0971 -0.13394,-0.15072 -0.0306,-0.039 -0.0592,-0.0795 -0.0891,-0.119 -0.0315,-0.0426 -0.0628,-0.0847 -0.0901,-0.13019 -0.0185,-0.033 -0.0361,-0.0663 -0.0583,-0.0971 -0.0219,-0.0359 -0.0463,-0.0704 -0.0679,-0.10639 -0.0251,-0.0371 -0.0503,-0.0736 -0.0727,-0.11246 -0.0186,-0.0328 -0.0362,-0.067 -0.0569,-0.0985 -0.0219,-0.0336 -0.0428,-0.0679 -0.066,-0.1008 -0.0205,-0.0306 -0.0389,-0.0621 -0.0598,-0.0924 -0.0237,-0.035 -0.0474,-0.0709 -0.0646,-0.10966 -0.017,-0.0329 -0.0324,-0.0675 -0.0482,-0.10079 -0.0141,-0.0309 -0.0254,-0.0631 -0.0438,-0.0919 -0.0148,-0.0283 -0.0276,-0.057 -0.0409,-0.0859 -0.0221,-0.0389 -0.043,-0.0794 -0.0597,-0.12086 -0.001,-0.002 -0.002,-0.005 -0.003,-0.007 -0.0976,-0.12528 -0.19496,-0.25095 -0.29197,-0.37611 -0.13828,-0.17611 -0.2675,-0.35832 -0.39268,-0.5427 -0.004,-0.004 -0.008,-0.007 -0.0116,-0.0112 -0.0545,-0.0608 -0.10753,-0.12336 -0.14503,-0.19646 -0.017,-0.0317 -0.0331,-0.064 -0.0463,-0.0971 -0.51453,-0.81392 -0.93229,-1.68839 -1.35293,-2.55438 -0.49008,-1.05417 -0.99799,-2.10386 -1.41941,-3.18853 -0.10508,-0.2706 -0.21783,-0.53996 -0.31318,-0.81429 -0.0884,0.0167 -0.1781,0.0292 -0.26789,0.0373 -0.0782,0.007 -0.15671,0.0137 -0.23512,0.0173 -0.0788,0.003 -0.1573,0.004 -0.23609,0.005 -0.0778,0.004 -0.15601,0.001 -0.23368,0.004 -0.0859,-9e-4 -0.1719,0.002 -0.25777,0.002 -0.0545,-9e-4 -0.10888,-0.001 -0.16333,0.002 -0.0713,0.003 -0.14308,0.001 -0.21441,0.004 -0.0678,4.7e-4 -0.13545,8e-4 -0.20332,9.3e-4 -0.0625,1.1e-4 -0.12544,-10e-6 -0.18791,0 -0.0858,2e-5 -0.17094,0 -0.2568,0 -0.082,0.002 -0.16416,0.003 -0.24621,0.003 -0.0789,0 -0.15769,-0.003 -0.23657,-0.004 -0.0496,-9.1e-4 -0.0993,9.9e-4 -0.14888,9.3e-4 -0.0489,-0.004 -0.0981,4e-5 -0.14695,0 -0.0632,-9e-4 -0.12663,9.4e-4 -0.18984,9.3e-4 -0.0892,0.004 -0.17884,-8.7e-4 -0.26788,0.005 h -0.18502 c -0.0822,7e-5 -0.16446,0.003 -0.24669,0 -0.11027,0.005 -0.2204,-0.004 -0.33052,0.003 -0.0894,9.1e-4 -0.17943,0.003 -0.26885,0.003 -0.11872,0.005 -0.23713,-0.007 -0.35558,-0.005 -0.10624,-0.006 -0.21224,-0.007 -0.31847,-0.0131 -0.0631,-0.006 -0.12671,-0.004 -0.18936,-0.0135 -0.0897,-10e-4 -0.17923,-0.0105 -0.26836,-0.0187 -0.0799,-0.0101 -0.16006,-0.0156 -0.24043,-0.021 -0.059,-0.004 -0.1182,-0.004 -0.1773,-0.005 -0.0642,0.002 -0.12849,-0.003 -0.19273,-0.003 -0.0553,10e-4 -0.11045,9.7e-4 -0.16574,9.3e-4 -0.063,0.002 -0.12594,-0.003 -0.18887,0 -0.0679,0 -0.13593,9.3e-4 -0.20381,9.3e-4 h -0.20911 -0.20717 c -0.0915,9e-4 -0.18278,-0.002 -0.27415,-0.007 -0.0869,-0.008 -0.1739,-0.009 -0.26115,-0.0121 -0.0836,-0.004 -0.16739,-0.005 -0.25102,-0.008 -0.0811,-0.002 -0.16181,-0.008 -0.24283,-0.008 -0.0704,-0.003 -0.14065,-0.005 -0.21104,-0.007 -0.0831,-0.003 -0.16641,-0.003 -0.24957,-0.004 -0.1,9e-4 -0.19971,-0.001 -0.29969,-0.003 -0.0905,-9.4e-4 -0.1813,-9.4e-4 -0.27174,-9.4e-4 -0.1018,9e-4 -0.2033,-0.003 -0.30499,0.002 -0.113,-0.003 -0.22619,2e-5 -0.3392,0 -0.0976,-9e-4 -0.19532,-0.002 -0.29294,-0.002 -0.0847,0.004 -0.16916,0 -0.25391,0 -0.0818,0.002 -0.16386,0.002 -0.24572,0.002 -0.073,-9e-4 -0.14631,0.001 -0.21923,0.002 -0.0608,0.002 -0.12055,0.003 -0.18116,4.7e-4 -0.0359,0.006 -0.0727,0.004 -0.10889,0.006 -0.0482,0.002 -0.0963,0.003 -0.14454,0.004 -0.0775,0.002 -0.15477,-0.002 -0.23224,9.3e-4 -0.0699,0.002 -0.14015,4.2e-4 -0.21007,0.003 -0.0581,-0.005 -0.11594,0 -0.17393,0 -0.062,-0.003 -0.12416,-8e-4 -0.18598,0.006 -0.081,0.002 -0.16227,-0.006 -0.24283,0.003 -0.0688,-0.0126 -0.14039,6.6e-4 -0.20863,-0.007 -0.0694,-9.1e-4 -0.13905,2.1e-4 -0.20814,0.007 -0.10307,0.0117 -0.20566,-0.001 -0.30884,0.008 -0.0917,-0.006 -0.18298,0.007 -0.27463,0.009 -0.0928,0.0109 -0.18659,0.0115 -0.27993,0.009 -0.0675,0.0133 -0.0966,0.004 -0.10552,-0.0168 -0.0501,-0.004 -0.0999,-0.0119 -0.14984,-0.0177 -0.0564,-0.0103 -0.11339,-0.018 -0.17008,-0.0271 -0.049,-0.004 -0.0969,-0.0153 -0.14503,-0.0247 -0.0801,-0.0163 -0.16047,-0.0288 -0.24187,-0.0369 -0.0525,-0.007 -0.11326,-1.5e-4 -0.16719,-0.0126 z m 13.89352,1.17407 c -0.0217,0.0164 -0.0461,0.0393 -0.0732,0.0695 0.0851,-0.0482 0.0735,-0.0594 0.0732,-0.0695 z m 1.73211,3.21933 c 5e-5,0.005 4.4e-4,0.01 4.8e-4,0.0149 0.005,0.0182 0.003,0.005 -4.8e-4,-0.0149 z m 0.24958,0.77789 c 0.004,0.0181 0.007,0.0359 0.0149,0.0537 -0.0123,-0.0438 -0.0123,-0.0468 -0.0149,-0.0537 z m 0.25873,0.75782 c 0.001,0.0258 0.002,0.0422 9.6e-4,0.0131 -0.002,-0.0126 -8.5e-4,-0.0107 -9.6e-4,-0.0131 z m 0.0217,0.19225 c -7e-5,0.004 0.002,0.008 0.005,0.0131 -0.002,-0.004 -0.003,-0.008 -0.005,-0.0131 z" /><path
       id="path4823"
       style="fill:#fcc801;fill-opacity:1;fill-rule:evenodd;stroke-width:0.242772"
       d="m 74.687838,131.40111 c -0.0039,-4e-5 -0.0095,0.0112 -0.0106,0.0131 -0.01342,0.021 -0.03493,0.0348 -0.05348,0.0527 -0.02427,0.0148 -0.04288,0.0389 -0.06553,0.0565 -0.02729,0.0252 -0.05313,0.0409 -0.05589,0.0821 -0.005,-0.023 -0.01448,0.0377 -0.01253,0.0392 0.002,0.0417 -0.012,0.0819 0.0087,0.12553 0.0082,0.0615 0.04639,0.11246 0.05348,0.17452 0.01539,0.10959 0.0117,0.22109 0.03421,0.32991 -0.0015,0.0532 -0.01153,0.10594 -0.01301,0.15913 -0.002,0.0728 0.02164,0.13848 0.03469,0.20858 0.0032,0.0171 0.0026,0.035 0.0039,0.0523 l 1.582269,0.0331 c 0.04663,-0.09 0.109044,-0.17278 0.126234,-0.27485 0.0093,-0.0552 0.0064,-0.1119 0.01205,-0.16752 0.03551,-0.11026 0.0362,-0.22592 0.053,-0.33925 0.0058,-0.0581 0.03439,-0.10485 0.06071,-0.15539 0.01633,-0.0288 0.03622,-0.05 0.05975,-0.0737 0.02252,0.0124 0.02302,-0.0114 0.02746,-0.0266 -0.0044,0.0461 0.01873,0.0138 0.0371,-9.3e-4 0.02487,-0.0194 0.05401,-0.0354 0.0742,-0.0593 0.02833,-0.0163 0.04469,-0.0468 0.07275,-0.0625 -0.0091,0.004 0.0148,-0.006 0.0106,-0.007 -0.261373,-0.0311 -0.527485,-0.0463 -0.789207,-0.0681 l -0.446639,-0.0364 c -0.263982,-0.0202 -0.53763,-0.0525 -0.804144,-0.0551 z" /><path
       id="path4843"
       style="fill:#fcc801;fill-opacity:1;fill-rule:evenodd;stroke-width:0.242772"
       d="m 79.251074,118.53869 c -0.211835,-3e-5 -0.375695,0.0548 -0.397976,0.21326 -0.0073,0.0722 -0.0057,0.14541 -0.03517,0.21512 -0.0984,0.37768 -0.148659,0.76308 -0.214406,1.14699 -0.104457,0.48351 -0.19486,0.97081 -0.317996,1.45031 -0.197288,0.76827 -0.450225,1.52218 -0.686581,2.27953 -0.324068,0.97837 -0.646024,1.95756 -0.987232,2.93049 -0.321392,0.91646 -0.394488,1.10211 -0.736689,2.00281 -0.112287,0.29554 -0.225921,0.59079 -0.338714,0.88615 -0.192784,0.49163 -0.42831,1.11182 -0.647554,1.59683 -0.332105,0.73466 -0.747719,1.43019 -1.18622,2.10921 -0.147248,0.22002 -0.308901,0.43656 -0.413876,0.67989 -0.01557,0.0361 -0.07621,0.19898 -0.08046,0.24872 -0.0025,0.0289 0.0086,0.0576 0.01301,0.0863 l 0.702963,0.0196 c 0.02432,-0.0265 0.05262,-0.0505 0.07324,-0.0798 0.02368,-0.0337 0.03894,-0.0721 0.05926,-0.1078 0.0251,-0.0441 0.05078,-0.0882 0.07709,-0.13159 0.134452,-0.22208 0.26279,-0.44594 0.390267,-0.67196 0.114352,-0.20895 0.351888,-0.63664 0.442785,-0.83341 0.0911,-0.19721 0.168047,-0.40029 0.250542,-0.60103 0.149813,-0.36454 0.449499,-1.10539 0.58251,-1.46198 0.103101,-0.2764 0.197444,-0.55557 0.296314,-0.83342 0.09884,-0.29606 0.200255,-0.59169 0.296796,-0.88847 0.403366,-1.24 0.223369,-0.74732 0.648518,-2.00608 0.332384,-0.98411 0.696404,-1.95621 1.065767,-2.92769 0.298068,-0.76046 0.5953,-1.52176 0.918814,-2.27253 0.207918,-0.4825 0.4288,-0.95892 0.632137,-1.44331 0.1705,-0.37184 0.342499,-0.74394 0.532401,-1.10686 -0.280064,0.0277 -0.842982,-0.17729 -1.212719,-0.22632 0.01223,-5.3e-4 0.02363,-8.5e-4 0.0371,-9.4e-4 l 0.257287,0.009 0.6543,0.0308 c 0.0902,-0.005 0.180577,-0.0109 0.270778,-0.0163 0.25097,-0.0537 -0.12237,0.0225 0.153698,-0.0196 0.06449,-0.01 -0.633939,-0.27524 -1.099976,-0.27532 z m 0.939532,0.49931 c 0.122472,-0.0121 0.190607,-0.0691 0.16478,-0.20299 -0.07527,0.0272 -0.113036,0.12239 -0.153216,0.18059 -0.0039,0.007 -0.0077,0.015 -0.01156,0.0224 z" /><path
       id="path4845"
       style="fill:#fcc801;fill-opacity:1;fill-rule:evenodd;stroke-width:0.242772"
       d="m 85.446687,117.80747 c -0.04524,3.5e-4 -0.09072,0.002 -0.135871,0.004 -0.08365,0.002 -0.167864,-0.001 -0.251505,0.004 -0.08688,0.004 -0.173571,0.009 -0.260178,0.0159 -0.114573,0.007 -0.229809,0.002 -0.344496,0.0126 -6.39e-4,4e-5 -0.0013,-5e-5 -0.0019,0 -0.01121,0.077 -0.02642,0.1532 -0.04722,0.22865 -0.01398,0.0427 -0.01711,0.0521 -0.02361,0.0723 -0.01029,0.0297 -0.02058,0.0589 -0.03035,0.0887 -0.0069,0.0184 -0.01554,0.0415 -0.03132,0.0821 -0.0093,0.0239 -0.05516,0.0692 -0.02891,0.0714 0.43771,0.0375 0.878543,0.0253 1.317755,0.0383 -0.01137,-0.0216 -0.0099,-0.013 -0.0039,-0.035 0.0026,-1e-4 0.0051,-3.6e-4 0.0077,-4.7e-4 0.01274,-4.5e-4 0.0062,-0.0161 -4.82e-4,-0.0322 0.03216,-0.15346 0.05485,-0.30908 0.106962,-0.45824 0.0094,-0.0306 0.01966,-0.0607 0.02987,-0.091 -0.05566,-3.9e-4 -0.111489,0.001 -0.167189,0.002 -0.04515,-0.002 -0.09015,-0.003 -0.135389,-0.003 z m -5.061429,0.008 c -0.01807,4e-5 -0.03638,10e-5 -0.05444,4.7e-4 -0.07077,8.1e-4 -0.141657,0.009 -0.212479,0.0131 -0.09783,0.006 -0.19535,0.0141 -0.293423,0.0168 -0.108697,0.005 -0.217346,0.009 -0.326187,0.005 -0.01104,-3.2e-4 -0.02217,-6e-4 -0.03324,-9.4e-4 -0.0072,0.0269 -0.01482,0.0537 -0.02168,0.0807 -0.06429,0.19232 -0.13996,0.38079 -0.198507,0.5749 -0.06159,0.19085 -0.123456,0.38356 -0.131052,0.5847 l 0.741026,0.021 v -0.002 c 0.108715,-0.18575 0.200312,-0.3803 0.297277,-0.5721 0.09361,-0.19292 0.194931,-0.38147 0.301614,-0.5679 0.0323,-0.0496 0.06451,-0.10084 0.09347,-0.15352 v -4.7e-4 c -0.03615,7e-5 -0.07228,9e-5 -0.108408,0 -0.01807,-4e-5 -0.03589,-3e-5 -0.05396,0 z" /><path
       id="path4849"
       style="fill:#fcc801;fill-opacity:1;fill-rule:evenodd;stroke-width:0.242772"
       d="m 81.225537,117.83034 c -0.0018,0.0818 -0.0015,0.17815 -0.01349,0.20392 -0.04666,0.30434 -0.102116,0.60665 -0.179716,0.90527 -0.0021,0.009 -0.0041,0.0181 -0.0063,0.0271 0.03477,-0.006 0.06962,-0.0104 0.105035,-0.0112 0.02021,-4.4e-4 0.04072,1.7e-4 0.06119,0.002 0.08929,-0.004 0.177837,0.0123 0.266924,0.0159 0.0404,0.002 0.07926,0.005 0.116598,0.009 0.09159,-0.0485 0.206886,-0.0828 0.345941,-0.0961 0.07607,-0.27976 0.182319,-0.55087 0.254878,-0.83155 0.01973,-0.067 0.03109,-0.13576 0.0424,-0.20439 -0.0019,-8e-5 -0.0039,9e-5 -0.0058,0 -0.100442,-0.003 -0.200216,-0.002 -0.300651,-0.002 -0.0946,-0.006 -0.189567,-0.003 -0.284268,-0.006 -0.08872,-0.003 -0.177134,-0.008 -0.26596,-0.008 -0.04554,-0.004 -0.09122,-0.005 -0.136835,-0.004 z m -3.06432,9.18483 c -0.136243,0.25686 -0.283159,0.50851 -0.44423,0.75269 -0.306833,0.54221 -0.626175,1.0789 -0.988677,1.58844 -0.275199,0.39094 -0.553459,0.77922 -0.839316,1.16286 -0.135644,0.18839 -0.254271,0.38435 -0.357504,0.59123 l 0.410985,0.0229 c 0.148982,-0.19452 0.29856,-0.3886 0.446639,-0.58377 0.30342,-0.37546 0.588534,-0.76375 0.856179,-1.16379 0.193458,-0.30574 0.402357,-0.60311 0.58781,-0.91368 -0.02085,-0.0365 -0.03841,-0.0746 -0.04866,-0.11619 0.0032,-0.0817 0.0044,-0.11019 0.0053,-0.1274 -0.0026,0.0314 -0.0082,0.0663 -0.01349,-0.10639 -0.0033,-0.10735 0.04761,-0.20429 0.07757,-0.30518 0.04301,-0.10274 0.08263,-0.20683 0.12238,-0.31078 0.03992,-0.10093 0.08238,-0.2009 0.123344,-0.30145 0.02139,-0.0629 0.04353,-0.12553 0.06167,-0.18946 z" /><path
       id="path4851"
       style="fill:#fcc801;fill-opacity:1;fill-rule:evenodd;stroke-width:0.242772"
       d="m 80.99475,118.90594 -0.474585,0.0285 c -0.03544,0.003 -0.07301,-0.004 -0.10648,0.008 -0.0171,0.006 -0.0227,0.0275 -0.03421,0.0411 -0.07958,0.0941 -0.0579,0.0391 -0.0636,0.16146 -0.03218,0.27908 -0.115159,0.54883 -0.201879,0.81615 -0.142902,0.44272 -0.267002,0.89123 -0.437966,1.32525 -0.02013,0.0598 -0.146077,0.43298 -0.165743,0.4965 -0.107655,0.34774 -0.188776,0.70298 -0.29776,1.0504 -0.222952,0.74187 -0.450199,1.48288 -0.706335,2.21467 -0.0547,0.14432 -0.106701,0.28978 -0.164298,0.43304 -0.08386,0.2086 -0.246947,0.5715 -0.336304,0.78582 -0.136275,0.32684 -0.261708,0.65841 -0.411467,0.97994 -0.265593,0.55649 -0.552186,1.10665 -0.951578,1.58657 -0.139825,0.18049 -0.282881,0.35802 -0.42833,0.5343 -0.08154,0.0988 -0.169096,0.1928 -0.246206,0.29491 -0.02645,0.035 -0.04829,0.0735 -0.07227,0.11013 l 0.569019,0.0369 v -4.6e-4 c 0.0371,-0.0354 0.07573,-0.0691 0.111298,-0.10593 0.09177,-0.0951 0.176535,-0.19633 0.266442,-0.29305 0.164223,-0.17667 0.328412,-0.35331 0.491448,-0.53103 0.163114,-0.20091 0.314385,-0.41033 0.450011,-0.62903 -0.0024,-0.01 -0.0051,-0.0437 -0.0077,-0.12786 -0.0033,-0.10735 0.04761,-0.20429 0.07757,-0.30518 0.04301,-0.10274 0.08263,-0.20683 0.12238,-0.31078 0.03992,-0.10093 0.08238,-0.2009 0.123344,-0.30145 0.02456,-0.0722 0.05001,-0.14406 0.06938,-0.21792 0.03184,-0.10065 0.05997,-0.20223 0.103107,-0.29912 0.03685,-0.0889 0.07828,-0.17609 0.116117,-0.26458 0.03571,-0.0794 0.07663,-0.15649 0.109853,-0.23659 0.03294,-0.0769 0.05834,-0.15633 0.08721,-0.23471 0.04012,-0.0952 0.07544,-0.1922 0.12238,-0.28465 0.03537,-0.0755 0.07723,-0.14805 0.104553,-0.22679 0.02962,-0.065 0.06098,-0.12906 0.08673,-0.19552 0.02446,-0.0657 0.0572,-0.12784 0.08046,-0.19412 0.0163,-0.0639 0.05295,-0.12185 0.06408,-0.18759 0.02896,-0.065 0.04626,-0.1348 0.06794,-0.20252 0.01409,-0.0456 0.02947,-0.0898 0.03469,-0.13766 0.0088,-0.0592 0.02258,-0.11894 0.02361,-0.17872 0.0055,-0.0893 0.01663,-0.17751 0.02602,-0.26645 0.0095,-0.0995 0.03017,-0.19757 0.05878,-0.29352 0.0202,-0.0733 0.04103,-0.14631 0.06697,-0.21792 0.01916,-0.0441 0.02361,-0.0934 0.04143,-0.13812 0.01537,-0.056 0.02969,-0.11253 0.04866,-0.16753 v -4.6e-4 c -3e-6,-0.009 0.02506,-0.14557 0.02409,-0.14793 0.01464,-0.0758 0.02934,-0.15143 0.05204,-0.22538 0.02016,-0.086 0.04026,-0.17215 0.06456,-0.25712 0.02329,-0.0803 0.04265,-0.16173 0.06553,-0.24219 0.01967,-0.0645 0.04567,-0.12666 0.06601,-0.19132 0.02168,-0.0653 0.04501,-0.1296 0.07275,-0.19272 0.03167,-0.0458 0.03732,-0.10875 0.06649,-0.15679 0.01881,-0.0433 0.03941,-0.0859 0.06119,-0.12786 0.01096,-0.0238 0.02723,-0.0514 0.03469,-0.0784 0.01707,-0.0522 0.02892,-0.10716 0.04722,-0.15773 0.0264,-0.0578 0.02635,-0.10643 0.05204,-0.14652 0.02696,-0.081 0.05843,-0.16027 0.09203,-0.23892 0.03327,-0.0644 0.06384,-0.12987 0.100217,-0.19272 0.01368,-0.0246 0.02465,-0.0557 0.03662,-0.077 0.0018,-0.0161 0.01784,-0.0761 0.0212,-0.10639 0.0012,-0.005 0.0094,-0.0468 0.01253,-0.0887 -5.87e-4,-0.0708 0.0075,-0.14151 0.01542,-0.21186 0.0087,-0.0619 0.01817,-0.0995 0.01975,-0.13299 0.0056,-0.059 0.01652,-0.1224 0.02361,-0.16285 0.0056,-0.0299 0.0085,-0.041 0.01012,-0.0448 0.0011,-0.0254 0.0017,-0.0508 0.0039,-0.0761 1.86e-4,-0.0358 0.0034,-0.0715 0.0034,-0.10733 0.0022,-0.0546 0.0075,-0.10886 0.01686,-0.16286 0.0255,-0.0958 0.05742,-0.18787 0.117562,-0.26785 0.01961,-0.10469 0.07006,-0.20422 0.137798,-0.28885 0.09623,-0.0881 0.191931,-0.16441 0.322813,-0.19412 0.05933,-0.015 0.118602,-0.0262 0.179234,-0.0275 0.0054,-1.2e-4 0.01097,-5e-5 0.01638,0 -0.0046,-0.006 -0.0097,-0.0119 -0.01686,-0.0154 -0.04184,-0.0203 -0.09049,-0.0225 -0.135871,-0.0336 z m -3.20501,9.32249 c -4.25e-4,0.005 -8.62e-4,0.01 -0.0014,0.014 3.67e-4,-5.9e-4 5.96e-4,-0.001 9.63e-4,-0.002 1.06e-4,-0.002 3.94e-4,-0.0105 4.82e-4,-0.0121 z" /><path
       id="path4853"
       style="fill:#fcc801;fill-opacity:1;fill-rule:evenodd;stroke-width:0.242772"
       d="m 80.13568,119.26011 c -0.06195,0.0227 -0.130168,0.0333 -0.185497,0.0686 -0.07043,0.0449 -0.09624,0.15258 -0.112263,0.22259 -0.0366,0.15996 -0.049,0.32538 -0.09829,0.48297 -0.09622,0.38227 -0.182892,0.76696 -0.288605,1.14699 -0.106862,0.37718 -0.214545,0.7576 -0.352204,1.12554 -0.03817,0.10204 -0.08293,0.20173 -0.12238,0.30331 -0.03516,0.0905 -0.06737,0.18199 -0.101181,0.27298 -0.205251,0.54198 -0.379136,1.09429 -0.581064,1.63744 -0.247904,0.63139 -0.520406,1.25289 -0.805589,1.86935 -0.228847,0.47572 -0.461047,0.95115 -0.624909,1.45264 -0.147581,0.41762 -0.297328,0.83443 -0.451939,1.24966 -0.129585,0.29918 -0.272951,0.59296 -0.474103,0.85442 -0.128891,0.17267 -0.280814,0.32363 -0.422067,0.48623 l 0.54782,0.0434 c 0.183392,-0.14314 0.334646,-0.32193 0.495302,-0.4881 0.242718,-0.2525 0.414297,-0.55455 0.555047,-0.86888 0.02383,-0.0578 0.04907,-0.11474 0.07131,-0.17313 0.07973,-0.2093 0.148785,-0.42231 0.236087,-0.62903 0.0166,-0.0393 0.184778,-0.40745 0.202843,-0.44703 0.223817,-0.47592 0.4094,-0.96742 0.616237,-1.45032 0.278863,-0.62154 0.553258,-1.245 0.82197,-1.87075 0.03854,-0.0948 0.07673,-0.18988 0.114189,-0.28511 0.0057,-0.0621 0.01271,-0.124 0.01927,-0.18619 0.0095,-0.0995 0.03017,-0.19757 0.05878,-0.29352 0.0202,-0.0733 0.04103,-0.14631 0.06697,-0.21792 0.01916,-0.0441 0.02361,-0.0934 0.04143,-0.13812 0.01537,-0.056 0.02969,-0.11253 0.04866,-0.16753 v -4.6e-4 c -3e-6,-0.009 0.02506,-0.14557 0.02409,-0.14793 0.01464,-0.0758 0.02934,-0.15143 0.05204,-0.22538 0.02016,-0.086 0.04026,-0.17215 0.06456,-0.25712 0.02329,-0.0803 0.04265,-0.16173 0.06553,-0.24219 0.01967,-0.0645 0.04567,-0.12666 0.06601,-0.19132 0.02168,-0.0653 0.04501,-0.1296 0.07275,-0.19272 0.03167,-0.0458 0.03732,-0.10875 0.06649,-0.15679 0.01881,-0.0433 0.03941,-0.0859 0.06119,-0.12786 0.01096,-0.0238 0.02723,-0.0514 0.03469,-0.0784 0.01707,-0.0522 0.02892,-0.10716 0.04722,-0.15773 0.0264,-0.0578 0.02635,-0.10643 0.05204,-0.14652 0.02696,-0.081 0.05843,-0.16027 0.09203,-0.23892 0.03327,-0.0644 0.06384,-0.12987 0.100217,-0.19272 0.01368,-0.0246 0.02465,-0.0557 0.03662,-0.077 0.0018,-0.0161 0.01784,-0.0761 0.0212,-0.10639 0.0012,-0.005 0.0094,-0.0468 0.01253,-0.0887 -5.87e-4,-0.0708 0.0075,-0.14151 0.01542,-0.21186 0.0087,-0.0619 0.01817,-0.0995 0.01975,-0.13299 0.0056,-0.059 0.01652,-0.1224 0.02361,-0.16285 0.0056,-0.0299 0.0085,-0.041 0.01012,-0.0448 0.0011,-0.0254 0.0017,-0.0508 0.0039,-0.0761 1.86e-4,-0.0358 0.0034,-0.0715 0.0034,-0.10733 0.0022,-0.0546 0.0075,-0.10886 0.01686,-0.16286 0.02547,-0.0957 0.05705,-0.18792 0.11708,-0.26785 0.01234,-0.0662 0.03707,-0.13025 0.07083,-0.18992 -0.0065,-0.003 -0.01305,-0.005 -0.01927,-0.008 z" /><path
       id="path4855"
       style="fill:#fcc801;fill-opacity:1;fill-rule:evenodd;stroke-width:0.242772"
       d="m 80.006554,118.3973 c -0.06744,0.005 -0.237517,-0.007 -0.298241,0.0555 -0.03116,0.0321 -0.02227,0.0926 -0.04385,0.12879 -0.06062,0.19017 -0.153256,0.36872 -0.235605,0.55064 -0.126297,0.27249 -0.2343,0.55193 -0.317032,0.83994 -0.08113,0.3217 -0.157788,0.64463 -0.248133,0.96408 -0.08774,0.29637 -0.190955,0.58837 -0.295351,0.87961 -0.08147,0.22852 -0.1516,0.46057 -0.205733,0.69669 -0.0711,0.27123 -0.144861,0.54214 -0.261142,0.79935 -0.126161,0.28 -0.264931,0.55424 -0.40713,0.82689 -0.119274,0.25824 -0.2088,0.53 -0.280897,0.80401 -0.06857,0.25347 -0.136839,0.50681 -0.20766,0.75969 -0.06013,0.21598 -0.118182,0.43272 -0.193207,0.64443 -0.08984,0.21827 -0.184075,0.43402 -0.309323,0.63603 -0.111033,0.17652 -0.205998,0.36185 -0.317031,0.5385 -0.110635,0.20482 -0.201654,0.41934 -0.273669,0.63976 -0.101408,0.30046 -0.211042,0.5976 -0.326668,0.89314 -0.120058,0.33177 -0.221616,0.66956 -0.329559,1.00514 -0.05532,0.15959 -0.102627,0.32128 -0.158516,0.48064 -0.01766,0.0503 -0.07401,0.18851 -0.08624,0.24685 -0.0054,0.0258 -0.0025,0.0526 -0.0039,0.0789 l 0.696699,0.009 v -4.7e-4 c 0.01147,-0.0233 0.02455,-0.0459 0.03421,-0.07 0.03161,-0.0788 0.05333,-0.16137 0.08335,-0.24079 0.06094,-0.16121 0.129066,-0.31786 0.185979,-0.48064 0.120332,-0.33575 0.248098,-0.66874 0.375813,-1.00187 0.116757,-0.29741 0.222938,-0.5984 0.351723,-0.89128 0.09483,-0.21578 0.205824,-0.42336 0.328595,-0.62529 0.110761,-0.18305 0.245393,-0.35009 0.353168,-0.53477 0.127715,-0.20653 0.235414,-0.42556 0.330041,-0.64816 0.0969,-0.2108 0.161625,-0.43264 0.230787,-0.65283 0.08801,-0.24943 0.144471,-0.50719 0.210552,-0.76248 0.0565,-0.18078 0.112299,-0.36349 0.191279,-0.53664 0.03846,-0.0843 0.08271,-0.16586 0.12238,-0.24965 0.08186,-0.18636 0.19158,-0.35947 0.283787,-0.54083 0.05266,-0.10358 0.08386,-0.18129 0.129607,-0.28792 0.113718,-0.26497 0.210068,-0.53603 0.287642,-0.81288 0.06855,-0.23043 0.135816,-0.46142 0.203806,-0.69203 0.103584,-0.29002 0.176221,-0.58789 0.254396,-0.88474 0.08257,-0.32261 0.168021,-0.6447 0.263069,-0.96408 0.06628,-0.28995 0.192564,-0.55796 0.330041,-0.82128 0.102195,-0.1813 0.186935,-0.37102 0.285714,-0.5539 0.0111,-0.038 0.06402,-0.0978 0.04866,-0.14232 -0.02569,-0.0744 -0.23421,-0.0716 -0.272705,-0.0761 z" /><path
       id="path4857"
       style="fill:#fcc801;fill-opacity:1;fill-rule:evenodd;stroke-width:0.242772"
       d="m 85.167718,117.8126 c -0.03617,2.7e-4 -0.07235,4.7e-4 -0.108407,0.003 -0.08688,0.004 -0.173571,0.009 -0.260178,0.0159 -0.114573,0.007 -0.229809,0.002 -0.344496,0.0126 -0.06238,0.004 -0.124676,0.009 -0.186942,0.0135 0.0017,0.0194 0.0038,0.0386 0.0067,0.0579 -0.0015,0.24003 0.01193,0.47933 0.02072,0.71909 -3.13e-4,0.0335 -0.0012,0.067 -0.0024,0.10033 0.01445,7.2e-4 0.02893,8.7e-4 0.04336,0.002 0.05862,0.003 0.116087,-0.002 0.174416,0 0.04478,9e-4 0.08962,-0.002 0.134425,-9.4e-4 0.05027,0.003 0.100554,3.6e-4 0.150807,0.003 0.03702,0 0.07424,-0.002 0.111298,-9.3e-4 0.03831,0 0.07581,0.003 0.11419,9.3e-4 h 0.08769 c 9.68e-4,-0.0366 0.0021,-0.0717 0.0039,-0.10219 0.02376,-0.23981 0.03437,-0.47975 0.03903,-0.72049 0.0068,-0.0344 0.01173,-0.0691 0.0159,-0.1036 z" /><path
       id="path4859"
       style="fill:#fcc801;fill-opacity:1;fill-rule:evenodd;stroke-width:0.242772"
       d="m 84.509564,117.84013 c -0.01829,0.001 -0.03666,0.002 -0.05493,0.004 -0.104507,0.007 -0.208424,0.0174 -0.313177,0.021 -0.107794,0.006 -0.215323,0.0112 -0.323295,0.0121 -0.09281,0.004 -0.185513,0.009 -0.278006,0.0121 -0.0061,0.0527 0.01536,0.11536 0.0058,0.16193 -4.24e-4,0.21836 -0.0073,0.43711 -0.02698,0.65469 0.04305,2.7e-4 0.08603,8.1e-4 0.129125,4.7e-4 0.06149,9e-4 0.123958,-10e-4 0.184534,0.01 0.0434,0.002 0.08721,0.002 0.131053,0.003 0.04094,0.002 0.08448,0.007 0.121898,0.008 0.01878,0.008 0.0443,-1.1e-4 0.06697,0.003 0.06118,9e-4 0.1225,0.003 0.18357,0.007 0.02267,0.001 0.04501,8.3e-4 0.06745,4.7e-4 0.02814,-0.22727 0.0672,-0.45349 0.09877,-0.68036 -0.0049,-0.0627 0.04979,-0.15493 0.0087,-0.21512 -4.58e-4,-6.7e-4 -9.64e-4,-0.001 -0.0014,-0.002 z" /><path
       id="path4861"
       style="fill:#fcc801;fill-opacity:1;fill-rule:evenodd;stroke-width:0.242772"
       d="m 82.800097,117.8742 c -0.004,0.0295 -0.0033,0.0594 -0.0029,0.0807 0.0032,0.15108 0.04339,0.29913 0.03951,0.45077 0.005,0.19787 0.0064,0.18134 9.63e-4,0.31358 0.02026,-5.4e-4 0.04055,-8e-4 0.06071,-0.003 0.04294,-0.002 0.08531,-0.004 0.128161,-0.004 0.03381,-4.4e-4 0.06786,-10e-4 0.101663,-9.3e-4 0.06766,9e-4 0.135084,-0.001 0.201879,-0.007 0.05091,0 0.101883,-9.7e-4 0.152734,0.002 0.05518,2e-4 0.110112,9e-4 0.165261,4.6e-4 0.05728,8.4e-4 0.115357,-9.2e-4 0.172007,0.008 -0.0073,-0.10324 -0.01261,-0.20668 -0.01542,-0.31078 -0.01312,-0.15141 0.0086,-0.30388 -0.0106,-0.45497 -0.0026,-0.0205 -0.0065,-0.0454 -0.01301,-0.0705 -0.08298,0.004 -0.165906,0.008 -0.248615,0.0112 -0.07423,-0.002 -0.147678,0.004 -0.221633,-0.003 -0.09718,0 -0.19455,-1.5e-4 -0.291496,-0.005 -0.07326,0 -0.146245,-0.004 -0.219224,-0.008 z" /><path
       id="path4863"
       style="fill:#fcc801;fill-opacity:1;fill-rule:evenodd;stroke-width:0.242772"
       d="m 82.871887,117.88587 -0.346422,4.6e-4 c -0.0606,0.0221 -0.129298,0.0294 -0.181643,0.0663 -0.08793,0.062 -0.03527,0.42222 -0.03565,0.51284 0.0074,0.20362 0.0036,0.1406 0.01349,0.27578 0.08504,-10e-4 0.07573,0.0224 0.09444,-0.0341 0.001,-9e-4 0.0025,-0.006 0.0048,-0.006 0.0026,0 0.0051,0.005 0.0082,0.002 0.08312,0.0192 0.241576,0.11721 0.25006,0.0308 1.34e-4,-5.8e-4 3.76e-4,-7.8e-4 4.82e-4,-9.4e-4 -0.02221,-10e-4 -0.03429,-0.004 0.0048,-0.0131 0.02198,0 0.04364,3e-5 0.06553,9.3e-4 0.04942,0 0.09912,1.5e-4 0.148398,-0.004 0.04294,-0.002 0.08531,-0.004 0.128161,-0.004 0.03381,-4.4e-4 0.06786,-0.001 0.101663,-9.4e-4 0.0072,1e-4 0.01444,-3e-5 0.02168,0 -0.01,-0.0831 -0.01707,-0.16667 -0.02457,-0.25058 -0.01164,-0.093 0.01765,-0.44999 -0.06986,-0.50957 -0.05338,-0.0363 -0.12232,-0.0435 -0.18357,-0.0653 z" /><path
       id="path4865"
       style="fill:#fcc801;fill-opacity:1;fill-rule:evenodd;stroke-width:0.242772"
       d="m 82.074007,117.9246 c -0.05126,0.0368 -0.109191,0.0663 -0.154179,0.11012 -0.113306,0.11039 -0.110409,0.16265 -0.156589,0.30565 -0.01697,0.0603 -0.03757,0.11992 -0.05107,0.18106 -0.0306,0.13864 -0.04482,0.28036 -0.05541,0.4223 0.08668,-0.0332 0.189846,-0.0556 0.308841,-0.063 0.07543,-0.0501 0.16099,-0.0845 0.241387,-0.12693 0.209188,-0.0369 0.184417,0.0279 0.209106,-0.0467 10e-4,-9e-4 0.0025,-0.006 0.0048,-0.006 0.0026,0 0.0051,0.005 0.0082,0.002 0.01948,0.005 0.04308,0.0136 0.06794,0.0233 0.0026,-0.0661 0.0045,-0.1319 0.0034,-0.19739 -0.0012,-0.0605 -0.0087,-0.12067 -0.01301,-0.18105 -0.01559,-0.13735 -0.0015,-0.19413 -0.09347,-0.30798 -0.0361,-0.0447 -0.08727,-0.0756 -0.131053,-0.1134 z" /><path
       id="path4867"
       style="fill:#fcc801;fill-opacity:1;fill-rule:evenodd;stroke-width:0.242772"
       d="m 82.887787,118.00019 c -0.4522,0.21445 -0.26744,0.0807 -0.574319,0.37378 -0.219966,0.30014 -0.08643,0.10542 -0.267888,0.39711 -0.0207,0.0332 -0.04213,0.0666 -0.0636,0.0999 0.07142,-0.0446 0.150247,-0.0776 0.225006,-0.11713 0.209188,-0.0369 0.184417,0.0279 0.209106,-0.0467 10e-4,-9e-4 0.0025,-0.006 0.0048,-0.006 0.0026,0 0.0051,0.005 0.0082,0.002 0.08312,0.0192 0.241576,0.11721 0.25006,0.0308 1.34e-4,-5.8e-4 3.76e-4,-7.8e-4 4.82e-4,-9.4e-4 -0.02221,-10e-4 -0.03429,-0.004 0.0048,-0.0131 0.02198,0 0.04364,3e-5 0.06553,9.3e-4 0.02343,0 0.04687,-6e-5 0.07034,-4.7e-4 0.102699,-0.20706 -0.0083,0.0281 0.150325,-0.31264 0.08155,-0.2758 0.09117,-0.1412 -0.02891,-0.40411 z" /><path
       id="path4869"
       style="fill:#fcc801;fill-opacity:1;fill-rule:evenodd;stroke-width:0.242772"
       d="m 85.257335,117.81167 c -0.06601,2.8e-4 -0.132169,-5.3e-4 -0.198024,0.004 -0.08688,0.004 -0.173571,0.009 -0.260178,0.0159 -0.03723,0.002 -0.07446,0.002 -0.111781,0.003 -0.07541,0.0461 -0.05237,0.0354 -0.144061,0.19365 -0.02351,0.18074 -0.04413,0.36211 -0.07564,0.54177 -0.0099,0.0562 -0.0238,0.11179 -0.03614,0.16752 0.02626,-5.9e-4 0.05259,-0.001 0.07902,-4.6e-4 0.04478,9e-4 0.08962,-0.002 0.134425,-9.4e-4 0.05027,0.003 0.100554,-1.1e-4 0.150807,0.003 0.03702,0 0.07424,-0.002 0.111298,-9.3e-4 0.03831,0 0.07581,0.003 0.11419,9.3e-4 h 0.118525 c 0.03811,0 0.07615,9.1e-4 0.11419,0 0.0386,0.002 0.07744,5.7e-4 0.116116,9.4e-4 0.0052,-0.0766 0.01007,-0.15847 0.01012,-0.15913 0.01169,-0.182 0.02337,-0.36375 0.03084,-0.54596 -0.07713,-0.18395 -0.0375,-0.14122 -0.153698,-0.22259 z" /><path
       id="path4871"
       style="fill:#fcc801;fill-opacity:1;fill-rule:evenodd;stroke-width:0.242772"
       d="m 85.446687,117.80747 c -0.04524,3.5e-4 -0.09072,0.002 -0.135871,0.004 -0.08365,0.002 -0.167864,-0.001 -0.251505,0.004 -0.04987,0.002 -0.0996,0.006 -0.149362,0.009 -0.0173,0.083 -0.03491,0.16589 -0.05541,0.24825 -0.02768,0.11437 -0.05183,0.22976 -0.08046,0.34391 -0.02582,0.10299 -0.07192,0.21209 -0.08576,0.32012 0.03582,3.8e-4 0.07164,-2.1e-4 0.107444,0.002 0.03702,0 0.07424,-0.002 0.111298,-9.3e-4 0.03831,0 0.07581,0.003 0.11419,9.3e-4 h 0.118525 c 0.03811,0 0.07615,9.1e-4 0.11419,0 0.03956,0.002 0.07938,4.8e-4 0.119007,9.4e-4 0.03229,0 0.06453,-0.002 0.09684,-9.4e-4 0.02926,0 0.05804,9.1e-4 0.08721,0 0.01143,0 0.02281,4.3e-4 0.03421,4.7e-4 0.09866,-0.19261 0.120721,-0.45043 0.147916,-0.65049 0.01197,-0.0941 0.0304,-0.18684 0.05155,-0.27905 -0.06951,-0.001 -0.139051,-7.1e-4 -0.208624,9.3e-4 -0.04515,-0.002 -0.09015,-0.003 -0.135389,-0.003 z" /><path
       id="path4873"
       style="fill:#fcc801;fill-opacity:1;fill-rule:evenodd;stroke-width:0.242772"
       d="m 85.446687,117.80747 c -0.04524,3.5e-4 -0.09072,0.002 -0.135871,0.004 -0.08365,0.002 -0.167864,-0.001 -0.251505,0.004 -0.0027,1.1e-4 -0.0055,3.6e-4 -0.0082,4.7e-4 -0.0845,0.23909 -0.172125,0.47705 -0.288605,0.70369 l 0.94965,0.0313 v -4.6e-4 c 0.06757,-0.24783 0.146234,-0.49232 0.233679,-0.73402 -0.0064,-1.7e-4 -0.01284,-8.3e-4 -0.01927,-9.4e-4 -0.11465,-0.009 -0.229565,-0.008 -0.344495,-0.005 -0.04515,-0.002 -0.09015,-0.003 -0.135389,-0.003 z" /><path
       id="path4875"
       style="fill:#fcc801;fill-opacity:1;fill-rule:evenodd;stroke-width:0.242772"
       d="m 84.67868,117.83314 c -9.65e-4,4.6e-4 -0.0019,9.3e-4 -0.0029,0.001 9.65e-4,-2e-5 0.0019,10e-6 0.0029,0 z m -0.0029,0.001 c -0.0737,9.8e-4 -0.147584,0.002 -0.221152,0.009 -0.104506,0.007 -0.208424,0.0174 -0.313177,0.021 -0.107794,0.006 -0.215324,0.0112 -0.323295,0.0121 -0.09539,0.004 -0.190668,0.009 -0.285715,0.0126 -0.07423,-0.002 -0.147678,0.004 -0.221633,-0.003 -0.09718,0 -0.19455,-2.8e-4 -0.291496,-0.005 -0.147166,0 -0.293188,-0.015 -0.440375,-0.0177 -0.03369,-0.001 -0.06713,-0.003 -0.100699,-0.004 -0.05014,0.0645 -0.08918,0.13447 -0.101662,0.21699 0.03291,0.0847 0.02546,0.16371 0.0087,0.25012 -0.0076,0.0329 -0.0179,0.07 0.02313,0.0798 0.186266,-0.004 0.372637,-0.007 0.558902,-0.0112 0.145716,0.008 0.291285,0.0159 0.437003,0.0238 l -4.82e-4,4.7e-4 c -0.0039,0.004 -0.0035,0.006 0.02505,-0.0107 0.01951,-0.0114 0.01523,-0.0535 0.01686,-0.07 0.0045,-0.0852 0.01614,-0.16607 0.07468,-0.23425 0.02264,-0.0521 0.05212,-0.10046 0.08624,-0.14559 0.652377,0.12647 0.483026,0.23624 0.787762,0.0145 0.09307,-0.0478 0.186996,-0.0937 0.281378,-0.13905 z" /><path
       id="path4877"
       style="fill:#fcc801;fill-opacity:1;fill-rule:evenodd;stroke-width:0.242772"
       d="m 79.074249,117.80934 v 4.6e-4 c -1.12e-4,0.0431 -1.9e-5,0.0861 4.82e-4,0.12926 -0.0052,0.0598 -0.01165,0.11954 -0.01831,0.17919 -0.0062,0.061 -0.0089,0.12278 -0.02409,0.18246 -0.01021,0.0467 -0.0239,0.0919 -0.04481,0.13532 -0.02326,0.0516 -0.04972,0.10198 -0.0742,0.15306 -0.03082,0.0612 -0.0631,0.12188 -0.08143,0.18805 -0.01266,0.0413 -0.02124,0.0771 -0.0265,0.10826 0.01899,7.4e-4 0.05956,0.002 0.09733,0.004 -6.64e-4,7.9e-4 -0.0013,0.002 -0.0019,0.002 -0.05034,-0.003 -0.07228,-0.004 -0.0954,-0.006 -0.04227,-0.002 -0.03167,-0.001 0,4.7e-4 -0.02889,0.17332 0.05686,0.19878 0.257769,0.18152 -0.0021,0.0196 -0.0044,0.0392 -0.0072,0.0588 3.19e-4,1e-5 6.44e-4,-2e-5 9.63e-4,0 -0.06788,0.14276 0.162735,0.12188 0.425921,0.0779 0.239773,0.0632 0.425277,0.11622 0.547338,-0.049 0.03093,-0.0454 0.07527,-0.0817 0.118044,-0.11619 0.0072,-0.005 0.01442,-0.0103 0.02168,-0.0154 -0.009,0.0403 -0.02411,0.0886 0.0053,0.12039 0.118951,0.19525 0.07416,0.12266 0.445676,0.0439 0.0028,-0.004 0.0054,-0.007 0.0082,-0.0107 0.09623,-0.0881 0.191931,-0.16441 0.322813,-0.19412 0.05933,-0.015 0.118602,-0.0262 0.179234,-0.0275 0.01768,-3.9e-4 0.03557,-1.7e-4 0.05348,9.3e-4 0.0065,-0.0196 0.01204,-0.0398 0.0159,-0.0602 0.01529,-0.0648 0.02917,-0.1305 0.03469,-0.19692 0.0032,-0.093 0.02438,-0.18444 0.0159,-0.27812 0.0056,-0.11425 0.02376,-0.2269 0.03903,-0.34018 0.0034,-0.0836 0.0066,-0.16701 0.0087,-0.25058 -0.06508,-0.002 -0.130395,0.002 -0.195616,9.3e-4 -0.08418,-0.007 -0.169617,-0.005 -0.254396,-0.007 -0.0943,-0.0106 -0.188686,-0.003 -0.283305,-0.009 -0.05125,3e-4 -0.102472,4.5e-4 -0.153698,4.7e-4 -0.0026,0.0167 -0.005,0.0333 -0.0077,0.0499 -0.08198,-0.0157 -0.14944,-0.0299 -0.20477,-0.0429 -0.02693,0.002 -0.05402,0.004 -0.08094,0.006 -0.09783,0.006 -0.195352,0.0141 -0.293423,0.0168 -0.108697,0.005 -0.217346,0.009 -0.326187,0.005 -0.06847,-0.002 -0.137717,-0.005 -0.205733,-0.003 -0.07533,-3e-4 -0.147007,-0.0166 -0.218743,-0.0383 z m 1.064804,0.0957 c 3.87e-4,0.01 -4.93e-4,0.0203 -0.0019,0.0313 6.71e-4,-0.0104 0.0015,-0.0209 0.0019,-0.0313 z m 0.953504,0.0588 c 0.002,-3.9e-4 0.0042,-7.3e-4 0.0067,0.002 -0.0032,-7e-5 -0.0064,-3.9e-4 -0.0096,-4.7e-4 8.89e-4,-5.9e-4 0.0019,-9.3e-4 0.0029,-9.3e-4 z" /><path
       id="path4879"
       style="fill:#fcc801;fill-opacity:1;fill-rule:evenodd;stroke-width:0.242772"
       d="m 80.360204,117.81587 c -0.0098,6e-5 -0.01962,2.8e-4 -0.02939,4.7e-4 -0.0039,4e-5 -0.0077,3.8e-4 -0.01156,4.6e-4 -0.002,0.12815 -0.0091,0.25614 -0.02264,0.38405 -0.02827,0.16029 -0.07547,0.3171 -0.125271,0.47223 -0.03851,0.13739 -0.05562,0.2796 -0.06456,0.42138 -0.007,0.1199 -0.0029,0.23987 -0.0092,0.35978 -9.87e-4,0.0607 -0.007,0.17191 0.03758,0.22072 0.01465,0.0161 0.03594,0.0249 0.05396,0.0373 0.124631,0.0392 0.116533,0.0413 0.182125,0.0383 8.81e-4,-0.006 0.0014,-0.0112 0.0024,-0.0168 0.02547,-0.0957 0.05705,-0.18792 0.11708,-0.26785 0.01965,-0.10459 0.0706,-0.2043 0.13828,-0.28885 0.09623,-0.0881 0.191931,-0.16441 0.322813,-0.19412 0.03337,-0.008 0.06663,-0.0156 0.100217,-0.0205 0.0072,-0.0893 0.0191,-0.17796 0.04336,-0.26505 0.03985,-0.1619 0.09225,-0.32297 0.07661,-0.49184 1.3e-4,-0.12503 -0.0064,-0.24997 -0.01927,-0.37424 -0.01656,2e-4 -0.03306,6.4e-4 -0.04963,4.7e-4 -0.08418,-0.007 -0.169617,-0.005 -0.254396,-0.007 -0.0943,-0.0106 -0.188686,-0.003 -0.283305,-0.009 -0.05868,3.4e-4 -0.117206,-2.3e-4 -0.175861,0 -0.0098,4e-5 -0.01958,-6e-5 -0.02939,0 z" /><path
       id="path4881"
       style="fill:#fcc801;fill-opacity:1;fill-rule:evenodd;stroke-width:0.242772"
       d="m 80.789498,117.821 c -0.0187,0.0886 -0.03544,0.17764 -0.05348,0.26645 -0.01793,0.12126 -0.05068,0.24645 -0.0048,0.36538 0.0067,0.0174 0.01079,0.038 0.02505,0.0504 0.01838,0.016 0.04449,0.02 0.06697,0.0299 0.03611,0.002 0.07229,0.004 0.108407,0.007 l 0.426885,0.007 0.110335,-0.006 c 0.02494,-0.01 0.05341,-0.0137 0.07516,-0.0289 0.01673,-0.0118 0.02524,-0.0315 0.03614,-0.0485 0.06977,-0.10874 0.08064,-0.23633 0.103589,-0.35977 0.01356,-0.0875 0.03048,-0.17389 0.05011,-0.25992 -0.03519,-2.2e-4 -0.07036,-4e-4 -0.105516,-0.001 -0.08872,-0.003 -0.177134,-0.008 -0.26596,-0.008 -0.08627,-0.008 -0.172682,-0.002 -0.259215,-0.003 -0.08418,-0.007 -0.169617,-0.005 -0.254396,-0.007 -0.01972,-0.002 -0.03953,-0.003 -0.05926,-0.004 z" /><path
       id="path4885"
       style="fill:#fcc801;fill-opacity:1;fill-rule:evenodd;stroke-width:0.242772"
       d="m 81.279982,117.8308 c 0.01238,0.0183 0.02577,0.0334 0.03999,0.0439 0.104194,0.0765 0.327013,0.12733 0.445194,0.16099 l 0.05396,-0.003 c 0.05704,-0.0312 0.235909,-0.11694 0.272705,-0.18199 2.56e-4,-4.5e-4 7.22e-4,-9.3e-4 9.64e-4,-0.001 -0.06001,-4.7e-4 -0.120001,-0.001 -0.180198,-0.001 -0.0946,-0.006 -0.189567,-0.003 -0.284268,-0.006 -0.08872,-0.003 -0.177134,-0.008 -0.26596,-0.008 -0.02748,-0.003 -0.05488,-0.003 -0.08239,-0.004 z" /><path
       id="path4887"
       style="fill:#fcc801;fill-opacity:1;fill-rule:evenodd;stroke-width:0.242772"
       d="m 82.105807,117.84947 c 0.0021,0.004 0.0043,0.007 0.0063,0.0107 0.148742,0.13681 0.07262,0.0773 0.225488,0.18106 l 0.32185,-0.003 c 0.126675,-0.098 0.07472,-0.0526 0.184534,-0.16146 -0.08826,-0.005 -0.176392,-0.0105 -0.264996,-0.0121 -0.122368,-0.005 -0.243696,-0.009 -0.365695,-0.014 -0.03589,-9.6e-4 -0.07166,-6e-4 -0.107444,-9.3e-4 z" /><path
       id="path4889"
       style="fill:#fcc801;fill-opacity:1;fill-rule:evenodd;stroke-width:0.242772"
       d="m 82.810215,117.87467 c 0.034,0.0451 0.07491,0.0843 0.132498,0.11012 0.0831,0.0372 0.17732,0.0445 0.26596,0.0667 l 0.05396,-0.003 c 0.06304,-0.0248 0.132988,-0.0366 0.18887,-0.0742 0.02868,-0.0193 0.05196,-0.05 0.07131,-0.0845 -0.07094,-0.001 -0.141257,0.004 -0.211997,-0.003 -0.09718,0 -0.19455,-1.5e-4 -0.291496,-0.005 -0.06987,0 -0.139501,-0.004 -0.209106,-0.007 z" /><path
       id="path4891"
       style="fill:#fcc801;fill-opacity:1;fill-rule:evenodd;stroke-width:0.242772"
       d="m 84.397302,117.84807 c -0.08524,0.007 -0.170265,0.0138 -0.255842,0.0168 -0.06641,0.004 -0.132615,0.007 -0.198988,0.009 0.04582,0.0209 0.09472,0.0372 0.139725,0.0593 h 0.122862 c 0.06286,-0.03 0.132819,-0.0497 0.192243,-0.0849 z" /><path
       id="path4899"
       style="fill:#fcc801;fill-opacity:1;fill-rule:evenodd;stroke-width:0.242772"
       d="m 82.639654,117.8672 c -0.08173,0.0533 -0.226019,0.13061 -0.258251,0.18432 -0.0202,0.0337 0.01235,0.0542 0.03035,0.0742 0.0908,0.0561 0.03152,0.027 0.186943,0.0653 l 0.351722,0.0182 c 0.192347,-0.0104 0.108479,9e-5 0.252469,-0.0238 0.05614,-0.0135 0.113331,-0.0233 0.16478,-0.0509 0.09592,-0.0515 0.170523,-0.15434 0.268369,-0.20485 0.02374,-0.0161 0.04745,-0.0322 0.07131,-0.0481 -0.05833,0.003 -0.116712,0.006 -0.174898,0.008 -0.07423,-0.002 -0.147678,0.004 -0.221633,-0.003 -0.09718,0 -0.19455,-1.5e-4 -0.291496,-0.005 -0.126877,0 -0.253011,-0.0101 -0.379667,-0.0149 z" /><path
       id="path5510"
       style="fill:#fcc801;fill-opacity:1;fill-rule:evenodd;stroke-width:0.242772"
       d="m 125.438,117.86533 c -0.004,8.2e-4 -0.009,0.002 -0.013,0.002 -0.0369,0.0125 -0.0738,0.0225 -0.11226,0.0271 -0.0163,-1.8e-4 -0.0333,0.003 -0.0477,0.0103 0.0111,-0.002 0.0172,-0.003 0.0193,-0.003 -0.002,0.002 -0.0531,0.0143 -0.0593,0.0163 -0.052,0.0154 -0.10469,0.0287 -0.15756,0.0411 -0.0409,0.008 -0.0826,0.0145 -0.1243,0.0182 -0.006,0.003 -0.0125,0.005 -0.0188,0.008 -0.0633,0.0263 -0.13026,0.0413 -0.19851,0.0495 -0.0421,0.003 -0.0844,0.006 -0.12672,0.007 0.0126,0.0904 0.0264,0.18085 0.0357,0.27159 0.0127,0.12456 0.0161,0.25005 0.0323,0.37424 0.045,0.34382 0.11373,0.68444 0.17056,1.0266 0.22101,1.00377 0.37769,2.0225 0.63117,3.01962 0.0991,0.38999 0.3197,1.09934 0.43893,1.49091 0.26733,0.84498 0.60185,1.66923 0.96122,2.48111 0.0555,0.14704 0.12826,0.27372 0.24139,0.38358 0.0189,0.0201 0.0415,0.0341 0.0487,0.0611 l 1.27294,-0.15959 c -0.008,-0.004 -0.0145,-0.009 -0.0193,-0.0112 -0.12683,-0.0859 -0.22277,-0.20959 -0.30691,-0.33318 -0.51197,-0.76213 -0.89143,-1.59781 -1.21031,-2.45125 -0.0827,-0.23878 -0.17269,-0.4754 -0.24862,-0.71629 -0.38902,-1.23406 -0.63938,-2.50528 -0.83594,-3.77977 -0.0566,-0.34243 -0.10061,-0.68714 -0.17153,-1.02707 -0.0263,-0.12589 -0.0657,-0.24893 -0.0968,-0.37378 -0.009,-0.0358 -0.0663,-0.28442 -0.10455,-0.43304 z m 3.02866,9.12185 -0.0347,0.004 c 0.0152,0.009 0.032,0.0143 0.0347,-0.004 z" /><path
       id="path5512"
       style="fill:#fcc801;fill-opacity:1;fill-rule:evenodd;stroke-width:0.242772"
       d="m 125.4221,117.8686 c -0.036,0.012 -0.0719,0.0217 -0.10937,0.0261 -0.0163,-1.8e-4 -0.0333,0.003 -0.0477,0.0103 0.0111,-0.002 0.0172,-0.003 0.0193,-0.003 -0.002,0.002 -0.0531,0.0143 -0.0593,0.0163 -0.052,0.0154 -0.10469,0.0287 -0.15756,0.0411 -0.0416,0.008 -0.0838,0.015 -0.12623,0.0187 -0.006,0.003 -0.0112,0.005 -0.0169,0.007 -0.0633,0.0263 -0.13026,0.0413 -0.19851,0.0495 -0.0306,0.002 -0.0613,0.004 -0.092,0.006 0.0373,0.0598 0.0866,0.11222 0.15081,0.13532 0.0734,0.0264 0.15259,0.0339 0.22886,0.0509 l 0.212,-0.0112 c 0.0518,-0.0218 0.11001,-0.0327 0.15562,-0.0649 0.0446,-0.0315 0.0323,-0.20299 0.0386,-0.25292 6.2e-4,-0.009 9.3e-4,-0.0194 0.002,-0.0289 z" /><path
       id="path5516"
       style="fill:#fcc801;fill-opacity:1;fill-rule:evenodd;stroke-width:0.242772"
       d="m 123.88127,117.89613 c -0.0325,0.004 -0.065,0.007 -0.0973,0.0112 0.0401,0.23213 0.0696,0.46616 0.10214,0.69949 0.0284,0.25568 0.10972,0.49879 0.23272,0.72562 0.14023,0.19669 0.16012,0.4319 0.19128,0.6617 0.0102,0.16218 0.0125,0.32238 0.0323,0.4839 0.0283,0.19607 0.0299,0.39418 0.0607,0.58983 0.0686,0.2726 0.10964,0.55066 0.16863,0.82502 0.0144,0.10058 0.0684,0.25969 0.18309,0.30005 0.0598,0.0211 0.12465,0.0252 0.18694,0.0378 l 0.36811,-0.0215 c 0.0431,-0.0142 0.0901,-0.0198 0.12912,-0.0425 0.0662,-0.0384 0.0333,-0.24391 0.0116,-0.29165 -0.0613,-0.27131 -0.11359,-0.54407 -0.15321,-0.81941 -0.026,-0.19546 -0.0361,-0.39151 -0.0491,-0.58797 -0.0187,-0.15995 -0.0344,-0.32015 -0.0395,-0.4811 -0.0104,-0.2362 -0.0319,-0.47505 -0.12768,-0.69529 -0.0961,-0.22612 -0.19034,-0.45411 -0.22935,-0.69762 -0.0293,-0.18798 -0.0533,-0.37712 -0.0829,-0.5651 -0.0142,0.002 -0.0286,0.004 -0.0429,0.006 -0.0696,0.005 -0.13975,0.01 -0.20959,0.008 -0.0682,-0.01 -0.13576,-0.002 -0.20429,-0.002 -0.0716,0.003 -0.14259,-0.002 -0.21392,-0.007 -0.0249,-0.003 -0.0748,-0.006 -0.0964,-0.0187 -0.0365,-0.022 -0.0827,-0.0687 -0.12045,-0.11806 z" /><path
       id="path5518"
       style="fill:#fcc801;fill-opacity:1;fill-rule:evenodd;stroke-width:0.242772"
       d="m 123.88078,117.89566 c -0.0856,0.009 -0.17094,0.0214 -0.25632,0.0327 -0.0884,0.0167 -0.1781,0.0292 -0.26789,0.0373 -0.0143,0.001 -0.0286,0.002 -0.0429,0.004 0.054,0.22433 0.11551,0.44632 0.18887,0.66543 0.0355,-0.0157 0.0701,-0.0241 0.10311,-0.0247 0.19948,-0.003 0.34729,0.26541 0.37388,0.76996 0.002,0.0425 0.003,0.0848 0.003,0.12692 0.007,0.005 0.0147,0.009 0.0222,0.0126 0.0752,0.0392 0.16072,0.0577 0.2409,0.0863 l 0.34595,-0.0135 c 0.0537,-0.0338 0.11865,-0.0552 0.16092,-0.10173 0.0285,-0.0313 0.0392,-0.0773 0.0395,-0.11899 2.5e-4,-0.046 -0.0233,-0.0891 -0.0376,-0.13299 -0.051,-0.15669 -0.11131,-0.31156 -0.17586,-0.46338 -0.0911,-0.24142 -0.16058,-0.48849 -0.22983,-0.73588 -0.0122,3.5e-4 -0.0243,4.4e-4 -0.0366,4.6e-4 -0.0716,0.003 -0.14259,-0.002 -0.21392,-0.007 -0.0249,-0.003 -0.0748,-0.006 -0.0964,-0.0187 -0.0366,-0.0221 -0.0832,-0.069 -0.12094,-0.11853 z" /><path
       id="path5524"
       style="fill:#fcc801;fill-opacity:1;fill-rule:evenodd;stroke-width:0.242772"
       d="m 123.88078,117.89566 c -0.0293,0.003 -0.0585,0.007 -0.0877,0.0107 0.0385,0.0452 0.0781,0.0899 0.11708,0.13532 l 0.054,-4.6e-4 c 0.008,-0.0122 0.0157,-0.0243 0.0236,-0.0364 -0.034,-0.0244 -0.0739,-0.0658 -0.10697,-0.1092 z" /></g><g
     inkscape:groupmode="layer"
     id="layer4"
     inkscape:label="Layer 4"
     transform="translate(-50.279102,-75.216597)"><path
       id="path5969"
       style="fill:#fcc801;fill-opacity:1;fill-rule:evenodd;stroke-width:0.264583"
       d="m 102.62423,75.216597 c -12.064467,4.699041 -23.238469,11.32878 -33.937296,18.561334 -4.316276,3.065113 -9.28261,5.405536 -13.011349,9.149319 -1.628285,3.01651 -5.057379,5.24157 -5.190829,8.87364 -0.691044,1.64999 1.610943,3.2525 3.010854,3.36491 8.572824,0.0103 17.150451,0.0286 25.720276,0.0339 1.729964,-0.33813 3.776814,0.23616 5.660211,0.0114 23.041973,0.033 46.083953,0.0661 69.125923,0.0991 0.47214,-1.29497 1.60358,-2.28368 0.6688,-3.52905 -0.58364,-4.12588 -4.14407,-6.89808 -6.53043,-10.09495 -7.97878,-5.321803 -15.55028,-11.288384 -24.0178,-15.836473 -6.84508,-4.151322 -14.19287,-7.388933 -21.49836,-10.63318 z m 0.0155,2.110466 c 7.86691,3.320817 15.61518,6.937329 22.95049,11.32365 6.76873,3.820566 12.96474,8.568703 19.4831,12.794777 2.0927,2.66835 4.51492,5.04089 6.67356,7.61144 1.14708,1.12932 2.2605,3.21714 0.84684,4.53766 -1.85359,0.64551 -3.86298,0.049 -5.83359,0.25941 -9.1008,-0.0529 -18.174,0.0203 -27.20672,0.0207 -5.03068,-0.14269 -10.07276,-0.10936 -15.08741,0.13292 -4.40849,-0.38405 -8.786493,0.23371 -13.20229,-0.20701 -12.19733,-0.0828 -24.449415,0.003 -36.633974,-0.11582 -1.68155,-0.32587 -2.560657,-2.26092 -1.528621,-3.56532 1.555344,-2.77309 4.168758,-4.7545 5.771283,-7.54296 2.992455,-3.135251 7.188755,-4.930451 10.724095,-7.433544 10.462415,-6.911741 21.280605,-13.357032 33.043237,-17.815933 z m -48.200159,30.742827 0.03514,-0.03 z m 100.504979,4.45916 c -0.004,0.0235 0.0333,0.0893 0,0 z" /><path
       style="fill:#fecc05;fill-opacity:1;fill-rule:evenodd;stroke-width:0.264583"
       id="path8084"
       d="m 73.834333,129.87675 c 3.311506,-3.55817 6.774677,3.19674 6.30665,6.82518 0.646213,3.45484 -3.130703,8.63595 -3.055463,10.31505 3.688908,-3.01452 4.793295,-9.13244 3.718574,-13.70891 0.128384,-3.94819 -6.965744,-6.37671 -6.969761,-3.43132 z" /><path
       id="path8086"
       style="fill:#fecc05;fill-opacity:1;fill-rule:evenodd;stroke-width:0.264583"
       d="m 69.196293,151.95713 c -0.109248,2.20454 6.1472,5.75486 9.326563,6.61507 2.773172,1.44983 7.63612,0.94042 4.115511,0.75923 -5.042196,-1.18394 -9.956421,-3.4531 -13.442074,-7.3743 z m 14.599626,7.45329 0.150895,0.003 z" /><path
       id="path8088"
       style="fill:#fecc05;fill-opacity:1;fill-rule:evenodd;stroke-width:0.264583"
       d="m 82.681258,154.93525 c -0.0037,0.021 0.01952,-6.5e-4 0,0 z m 0.747758,0.45682 c 0.442792,0.0984 0.97541,1.5075 1.153936,0.51775 -0.394454,-0.14913 -0.786337,-0.30986 -1.153936,-0.51775 z m 0.534851,0.46302 c -0.03257,-0.0669 -0.04181,-0.005 0,0 z m -0.395841,-0.32763 c -0.272461,-0.19993 0.0099,0.22751 0,0 z m 4.554244,-0.0284 c -3.153892,0.29632 -4.316135,1.26201 -0.524517,0.56124 1.701537,0.11521 -3.357975,2.30089 0.268712,3.25347 3.1162,0.0628 6.986932,1.82052 3.578598,4.97281 -2.848685,2.64047 -7.063408,-5.78228 -7.393352,-3.87828 1.544045,3.4958 7.845241,7.30569 9.636621,2.0691 1.551106,-3.64553 -4.193232,-2.11813 -5.663221,-4.06849 -1.443553,-1.11081 3.573498,-2.46857 0.09714,-2.90998 z" /><path
       id="path8090"
       style="fill:#fecc05;fill-opacity:1;fill-rule:evenodd;stroke-width:0.264583"
       d="m 77.06403,146.9192 c 0.565403,1.49086 5.67999,5.88616 7.190776,9.14932 3.220777,1.22939 -2.39489,-4.58759 -3.236498,-5.63992 -1.10797,-1.39388 -2.453603,-2.55586 -3.954278,-3.5094 z" /><path
       style="fill:#fecc05;fill-opacity:1;fill-rule:evenodd;stroke-width:0.264583"
       id="path8100"
       d="m 131.53673,128.73638 c -6.07791,-2.36106 -7.3904,5.61036 -5.30881,9.65132 1.74454,2.29893 1.96101,7.59862 4.81749,8.32516 -0.4348,-2.26727 -3.31042,-6.17972 -3.9777,-9.21466 -2.01522,-3.67422 0.72684,-10.68928 3.55961,-8.63616 0.30313,-0.0418 0.6063,-0.0842 0.90941,-0.12566 z" /><path
       style="fill:#fecc05;fill-opacity:1;fill-rule:evenodd;stroke-width:0.264583"
       id="path8102"
       d="m 129.86036,146.60935 c -4.8588,1.27551 -5.30891,8.09182 -10.51922,8.90929 -1.70019,0.83367 -1.45744,-0.89454 -3.5723,0.63258 5.46552,3.88697 -3.7706,1.68561 -4.28462,4.95256 -0.0811,5.57635 7.55777,6.49663 9.56334,1.60517 0.92329,-1.59188 4.41422,-3.77387 3.6264,-2.97579 3.9997,0.90159 8.31273,-4.10048 2.71448,-0.76008 -0.55026,0.60309 -3.50347,0.69569 -0.8633,0.61373 -5.08481,-1.78946 -6.30568,4.70876 -10.19323,6.12536 1.00904,1.49352 -7.29493,-4.56537 -2.25111,-6.1825 5.0972,1.37657 5.08741,-3.34515 2.03059,-3.80602 4.12508,0.9925 8.27637,-1.31757 10.0937,-5.03011 -0.15764,-1.55769 5.62958,-4.4855 3.65527,-4.08419 z" /><path
       style="fill:#fecc05;fill-opacity:1;fill-rule:evenodd;stroke-width:0.264583"
       id="path8104"
       d="m 128.04128,159.2461 c 3.44821,-1.47647 7.6257,-3.39815 8.53806,-7.41633 1.80639,-2.29678 -0.0454,-9.60327 -0.51312,-3.37632 -0.14189,3.86963 -2.16799,7.59458 -5.87405,9.12866 -0.25255,0.60246 -4.42847,1.78278 -2.15089,1.66399 z" /><path
       style="fill:#fecc05;fill-opacity:1;fill-rule:evenodd;stroke-width:0.264583"
       id="path8106"
       d="m 136.8825,148.85529 c -0.009,1.39506 -4.09217,6.98501 -1.26317,5.4766 0.39795,-1.15633 2.7901,-5.51106 1.26317,-5.4766 z" /><path
       style="fill:#fecc05;fill-opacity:1;fill-rule:evenodd;stroke-width:0.264583"
       id="path8108"
       d="m 136.78144,150.61207 c -0.27518,2.02718 -6.39949,6.92381 -1.43764,3.60793 0.39705,-0.54493 3.43832,-4.10719 1.43764,-3.60793 z" /><path
       style="fill:#1a1a1a;fill-opacity:1;fill-rule:evenodd;stroke-width:0.264583"
       id="path8263"
       d="m 92.355087,117.47928 c -1.372252,-1.28378 -7.0148,0.6201 -3.89731,0.58238 2.826251,-1.21662 -0.328989,-0.85779 2.819663,-0.46029 0.35903,-0.0405 0.7197,-0.0829 1.077647,-0.12209 z" /><path
       style="fill:#1a1a1a;fill-opacity:1;fill-rule:evenodd;stroke-width:0.264583"
       id="path8265"
       d="m 114.46277,117.64942 c 2.57875,-0.3847 0.65722,-0.24553 3.3159,0.73962 3.71681,-0.93742 -6.69064,-1.46704 -3.3159,-0.73962 z" /><path
       style="fill:#1a1a1a;fill-opacity:1;fill-rule:evenodd;stroke-width:0.264583"
       id="path8267"
       d="m 114.2699,117.53314 c -0.44639,1.6652 3.09369,1.58646 1.05371,0.33159 0.26668,-0.63859 -0.77444,-0.20381 -1.05371,-0.33159 z" /><path
       style="fill:#1a1a1a;fill-opacity:1;fill-rule:evenodd;stroke-width:0.264583"
       id="path8269"
       d="m 90.365875,117.26473 c -0.194851,1.1843 -0.815228,1.81267 0.92268,1.0873 0.663208,-0.7132 -0.08084,-1.42828 -0.92268,-1.0873 z" /><path
       style="fill:#1a1a1a;fill-opacity:1;fill-rule:evenodd;stroke-width:0.264583"
       id="path8275"
       d="m 115.52623,118.43648 c 1.21262,-1.19017 -0.57536,-1.32235 -0.66873,-0.0463 0.22291,0.0153 0.44582,0.0311 0.66873,0.0463 z" /><path
       style="fill:#1a1a1a;fill-opacity:1;fill-rule:evenodd;stroke-width:0.264583"
       id="path8277"
       d="m 90.843012,118.20083 c -0.0095,-0.80234 -1.677529,-1.59731 -1.289798,-0.43604 0.308047,0.67916 0.668456,0.47148 1.289798,0.43604 z" /><path
       style="fill:#1a1a1a;fill-opacity:1;fill-rule:evenodd;stroke-width:0.264583"
       id="path8279"
       d="m 91.225409,117.96035 c -0.464647,-1.53606 -2.517143,-0.0178 0,0 z" /><path
       style="fill:#8800aa;fill-opacity:1;fill-rule:evenodd;stroke-width:0.264583"
       id="path8489"
       d="m 83.640405,137.34505 c -1.327003,3.38483 -4.410105,7.77262 1.06386,8.7663 2.536927,3.60634 5.364394,3.41327 7.577869,-0.45706 5.315581,-3.71723 -4.602071,-3.98378 -4.877007,-7.51801 -1.998357,-1.96533 -5.811324,1.67912 -1.531016,-0.36089 -0.52295,0.0524 3.283632,4.46134 5.752822,4.18796 4.371033,2.20681 -4.119217,6.45245 -3.203115,6.99171 -1.255812,-3.68475 -9.067342,-3.4506 -5.386579,-8.07844 -0.402429,-0.84044 2.306769,-3.83792 0.603166,-3.53157 z" /><path
       style="fill:#8800aa;fill-opacity:1;fill-rule:evenodd;stroke-width:0.264583"
       id="path8491"
       d="m 94.085562,147.81032 c -3.843944,1.55924 -5.83064,6.8161 0.04253,6.474 4.098509,2.64441 10.363191,1.28244 13.569181,0.88578 3.5359,-0.35122 -3.36025,-4.45762 -4.28827,-6.16824 -2.89049,-1.47991 -2.97355,-8.25593 -5.610164,-3.03887 -0.06193,2.58777 -9.909591,3.82942 -3.654576,3.11931 2.905174,0.47128 6.83891,-6.3114 5.17828,-4.52902 1.3078,4.4466 6.52557,6.61132 8.82099,10.45533 0.69941,-0.29288 -6.97676,0.60445 -7.8527,0.90798 -2.429446,-1.95119 -11.752126,-0.87052 -8.542095,-5.46433 -0.0443,-0.88178 4.332385,-2.81518 2.336827,-2.64194 z" /><path
       style="fill:#8800aa;fill-opacity:1;fill-rule:evenodd;stroke-width:0.264583"
       id="path8493"
       d="m 104.8993,145.23543 c -1.91789,-5.71 4.41985,-6.25349 7.66447,-3.25511 7.25451,1.01887 0.21973,7.64959 -2.81853,5.68464 -4.35428,1.04921 -3.75646,0.4568 -6.2384,-2.55939 -1.35098,3.94084 5.40243,3.18601 5.30558,2.69304 3.68815,2.0982 12.10766,-3.3955 5.58083,-5.56381 -3.55738,-2.72476 -12.27067,-4.14151 -10.25715,2.99801 0.25428,7.5e-4 0.5095,0.002 0.7632,0.003 z" /><path
       style="fill:#8800aa;fill-opacity:1;fill-rule:evenodd;stroke-width:0.264583"
       id="path8495"
       d="m 94.670887,140.80691 c -1.524491,-2.74342 -9.317548,-6.12536 -2.657496,-7.78719 3.53912,-3.3261 5.608255,-4.55781 9.188119,-0.27611 0.85778,4.06397 -0.54328,9.89006 -5.938875,9.25861 1.731058,-0.054 -5.19925,-2.46848 -0.79639,-0.001 5.394074,1.45019 8.491695,-3.15164 7.975345,-8.0111 -1.57403,-5.46931 -8.243034,-5.08406 -11.216599,-1.05279 -7.323869,1.54888 1.648199,6.27637 3.445896,7.86993 z" /><path
       style="fill:#8800aa;fill-opacity:1;fill-rule:evenodd;stroke-width:0.264583"
       id="path8497"
       d="m 112.42699,137.22412 c 0.69934,-4.38129 5.91193,-5.21002 8.63218,-3.00961 1.04009,2.28365 1.54904,8.88815 -1.68155,6.06729 -1.77975,-0.66573 -4.41134,0.59237 -3.67082,0.0853 -2.34261,0.18681 -4.16915,-6.13348 -3.51599,-1.28226 2.04451,2.36044 5.69253,1.00357 6.27979,1.31658 5.37201,3.77836 5.98135,-7.24143 1.14,-7.30738 -2.89117,-1.09907 -9.15723,1.26371 -7.18361,4.13012 z" /><path
       style="fill:#8800aa;fill-opacity:1;fill-rule:evenodd;stroke-width:0.264583"
       id="path8499"
       d="m 111.16998,153.14556 c 2.30856,-5.49153 8.71726,-3.95447 12.83122,-6.96472 -1.77762,0.7166 -0.18095,5.75333 -4.33414,5.11629 -2.35915,0.75911 -0.0811,-0.62826 -1.62159,0.66643 1.2467,3.4717 -6.88138,-0.27391 -5.39972,4.59586 -1.31904,3.51148 -5.05751,2.48703 -1.82437,-0.59562 1.72509,-2.74097 -1.54758,-5.08082 -0.63576,-0.92977 -2.37565,2.08666 -2.22644,5.1914 1.64307,3.65202 2.4502,-1.84293 1.63094,-6.55646 6.39189,-5.10228 3.19828,-0.31379 -2.20352,-3.21038 1.40997,-1.94753 3.63058,1.25649 6.45559,-5.55839 2.93768,-5.28305 -3.79267,2.47306 -10.76541,1.78018 -11.69912,6.77751 l 0.2903,0.0143 0.0103,5e-4 z" /><path
       style="fill:#8800aa;fill-opacity:1;fill-rule:evenodd;stroke-width:0.264583"
       id="path8501"
       d="m 96.790379,157.82458 c -4.601333,3.69477 3.522161,8.65261 6.673381,4.99159 4.20829,-4.38021 -9.04685,-5.24375 -5.75099,-4.61726 -1.539865,-0.96241 9.96146,2.33667 3.71491,5.24491 -1.762451,2.04655 -8.127922,-2.94884 -3.918388,-5.53136 -0.239534,-0.0294 -0.479677,-0.0582 -0.718913,-0.0879 z" /><path
       style="fill:#fcc801;fill-opacity:0.92549;fill-rule:evenodd;stroke-width:0.264583"
       id="path8832"
       d="m 75.949462,125.26868 c 5.064794,0.0468 9.784222,7.69226 14.321043,3.18923 3.165107,-1.26303 7.34402,-6.43047 8.763656,-4.26831 4.923449,1.76855 9.794899,4.56824 15.001309,4.95347 5.23267,-0.9148 10.20946,-3.1191 15.5097,-3.57725 -3.02827,-0.0314 4.14466,0.11624 0.7557,-0.17428 -1.53523,-0.49241 -8.9011,1.38689 -12.68104,2.54112 -1.52996,0.40324 -5.59282,1.31268 -4.50319,1.0616 -5.02116,-1.76451 -10.06883,-3.49812 -14.94076,-5.6465 -4.427123,0.4637 -9.852406,8.13589 -12.148184,5.98305 -3.138179,-1.60536 -6.537234,-3.89739 -10.078234,-4.06213 z" /><path
       style="fill:#fcc801;fill-opacity:0.92549;fill-rule:evenodd;stroke-width:0.264583"
       id="path8834"
       d="M 64.111851,110.57259 C 74.00836,101.19587 86.391497,94.671932 98.31975,88.545999 87.2727,93.555546 76.867991,100.03834 67.142531,107.27714 c -0.288111,0.59163 -5.100224,3.47161 -3.03068,3.29545 z" /><path
       style="fill:#fcc801;fill-opacity:0.92549;fill-rule:evenodd;stroke-width:0.264583"
       id="path8836"
       d="m 80.191715,107.7787 c 7.848845,-5.50435 16.375637,-10.674384 24.340315,-15.553022 -8.559195,4.758343 -16.728039,10.199502 -24.961896,15.494442 0.207177,0.0194 0.414412,0.0392 0.621581,0.0586 z" /><path
       style="fill:#fcc801;fill-opacity:0.92549;fill-rule:evenodd;stroke-width:0.264583"
       id="path8838"
       d="m 106.82746,89.794537 c 10.97896,2.058485 20.59354,8.210422 31.08748,11.722723 -1.70954,-0.80036 -6.02259,-2.596112 -4.62254,-1.929692 -8.53097,-3.439464 -16.73002,-8.027582 -25.80059,-9.89534 -0.22086,0.03464 -0.44429,0.06694 -0.66435,0.102309 z" /><path
       style="fill:#fcc801;fill-opacity:0.92549;fill-rule:evenodd;stroke-width:0.264583"
       id="path8840"
       d="m 107.85674,96.323339 c 6.31852,2.466735 12.30543,5.850591 17.85306,9.683281 -5.18997,-4.10233 -11.12273,-7.5501 -17.31204,-9.749364 l -0.28848,0.03543 -0.2525,0.03102 z" /><path
       style="fill:#fcc801;fill-opacity:0.92549;fill-rule:evenodd;stroke-width:0.264583"
       id="path8842"
       d="m 103.95549,101.1978 c -1.77314,0.94059 -7.62522,6.27142 -2.85478,2.58042 0.13407,-0.62613 5.48983,-2.83707 2.85478,-2.58042 z" /><path
       style="fill:#fcc801;fill-opacity:0.92549;fill-rule:evenodd;stroke-width:0.264583"
       id="path8844"
       d="m 104.31319,101.70133 c 1.77051,0.72369 8.28971,5.14494 3.5871,1.52874 -1.12374,-0.47672 -2.26728,-1.90037 -3.5871,-1.52874 z" /><path
       style="fill:#fcc801;fill-opacity:0.92549;fill-rule:evenodd;stroke-width:0.264583"
       id="path8852"
       d="m 71.875141,164.32967 c 3.219038,-3.10234 5.934908,5.03092 8.398308,7.81281 2.632851,3.93464 5.479133,1.25123 3.565007,-2.3677 0.877153,-5.05146 5.307131,0.0867 6.817974,-1.77419 5.557592,0.002 0.67715,9.13247 7.200785,7.86944 4.030525,-0.51659 4.741405,-3.58285 8.263025,-0.90474 3.74226,-0.68333 1.25545,-7.70917 6.30732,-7.40376 0.43449,-0.52626 7.20277,6.03727 8.89443,0.64484 2.31499,-1.79301 0.041,-1.40565 2.74497,-0.39064 1.20341,6.51839 6.88014,1.87175 8.12869,-2.20414 1.6251,-1.06957 3.07796,-2.79163 3.10736,-1.75838 0.64592,-1.59413 -5.70949,1.38498 -5.67554,3.8981 -0.5516,1.86754 -3.85391,4.24412 -2.61502,3.31034 -0.74076,-4.16974 -6.22693,-6.16918 -8.16882,-1.31543 -0.44473,1.01343 -8.54147,-5.94511 -10.99195,0.0729 -1.22115,1.41976 0.14411,4.40498 -2.1954,4.90256 2.23046,-0.0826 -5.05795,-2.62206 -6.095193,0.26618 -2.940674,1.12542 -0.348447,0.83837 -3.700716,0.0799 -0.904246,-3.22884 -1.767204,-9.67745 -7.118768,-6.62331 1.528368,-1.9396 -9.310702,-1.51313 -5.343528,3.83139 0.555019,4.99164 -4.475915,-3.65591 -5.884317,-5.79979 0.04696,-2.98539 -6.902561,-3.92311 -5.638617,-2.1464 z" /></g></svg>
